<?xml version="1.0" encoding="UTF-8"?>
<svg width="44px" height="40px" viewBox="0 0 44 40" version="1.1" xmlns="http://www.w3.org/2000/svg" xmlns:xlink="http://www.w3.org/1999/xlink">
    <!-- Generator: Sketch 58 (84663) - https://sketch.com -->
    <title>graph/bar</title>
    <desc>Created with Sketch.</desc>
    <defs>
        <path d="M2,16 L2,26 L0,26 L0,16 L2,16 Z M14,0 L14,26 L12,26 L12,0 L14,0 Z M26,18 L26,26 L24,26 L24,18 L26,18 Z" id="path-1"></path>
        <path d="M22,0 C24.209139,0 26,1.790861 26,4 L26,36 L28,36 L28,20 C28,17.790861 29.790861,16 32,16 L34,16 C36.209139,16 38,17.790861 38,20 L38,36 L42,36 C43.1045695,36 44,36.8954305 44,38 C44,39.1045695 43.1045695,40 42,40 L2,40 C0.8954305,40 0,39.1045695 0,38 C0,36.8954305 0.8954305,36 2,36 L4,36 L4,14 C4,11.790861 5.790861,10 8,10 L10,10 C12.209139,10 14,11.790861 14,14 L14,36 L16,36 L16,4 C16,1.790861 17.790861,0 20,0 L22,0 Z M22,4 L20,4 L20,36 L22,36 L22,4 Z M10,14 L8,14 L8,36 L10,36 L10,14 Z M34,20 L32,20 L32,36 L34,36 L34,20 Z" id="path-3"></path>
    </defs>
    <g id="Page-1" stroke="none" stroke-width="1" fill="none" fill-rule="evenodd">
        <g id="Sugar---Free-SVG-Icons" transform="translate(-50.000000, -851.000000)">
            <g id="Icons" transform="translate(48.000000, 197.000000)">
                <g id="2X" transform="translate(0.000000, 335.000000)">
                    <g id="Icons" transform="translate(0.000000, 43.000000)">
                        <g id="graph/bar" transform="translate(0.000000, 272.000000)">
                            <g transform="translate(2.000000, 4.000000)">
                                <g id="Color/Fill" transform="translate(8.000000, 10.000000)">
                                    <mask id="mask-2" fill="white">
                                        <use xlink:href="#path-1"></use>
                                    </mask>
                                    <use id="Mask" fill="#D8D8D8" xlink:href="#path-1"></use>
                                    <g mask="url(#mask-2)" fill="#9BAEC8">
                                        <g transform="translate(-10.000000, -14.000000)">
                                            <rect x="0" y="0" width="48" height="48"></rect>
                                        </g>
                                    </g>
                                </g>
                                <g id="Color/Stroke">
                                    <mask id="mask-4" fill="white">
                                        <use xlink:href="#path-3"></use>
                                    </mask>
                                    <use id="Mask" fill="#000000" fill-rule="nonzero" xlink:href="#path-3"></use>
                                    <g mask="url(#mask-4)" fill="#191B22">
                                        <g transform="translate(-2.000000, -4.000000)">
                                            <rect x="0" y="0" width="48" height="48"></rect>
                                        </g>
                                    </g>
                                </g>
                            </g>
                        </g>
                    </g>
                </g>
            </g>
        </g>
    </g>
</svg>