<?xml version="1.0" encoding="UTF-8"?>
<svg width="44px" height="32px" viewBox="0 0 44 32" version="1.1" xmlns="http://www.w3.org/2000/svg" xmlns:xlink="http://www.w3.org/1999/xlink">
    <!-- Generator: Sketch 58 (84663) - https://sketch.com -->
    <title>graph/poly</title>
    <desc>Created with Sketch.</desc>
    <defs>
        <path d="M16,16 C18.209139,16 20,17.790861 20,20 C20,22.209139 18.209139,24 16,24 C13.790861,24 12,22.209139 12,20 C12,17.790861 13.790861,16 16,16 Z M4,4 C6.209139,4 8,5.790861 8,8 C8,10.209139 6.209139,12 4,12 C1.790861,12 0,10.209139 0,8 C0,5.790861 1.790861,4 4,4 Z M30,0 C32.209139,0 34,1.790861 34,4 C34,6.209139 32.209139,8 30,8 C27.790861,8 26,6.209139 26,4 C26,1.790861 27.790861,0 30,0 Z" id="path-1"></path>
        <path d="M43.2194215,0.414851548 C44.0949298,1.08831946 44.2587159,2.34401277 43.585248,3.21952105 L40.9635019,6.62805316 C41.6176475,7.58905906 42,8.74992768 42,10.0000995 C42,13.313808 39.3137085,16.0000995 36,16.0000995 C35.3037447,16.0000995 34.6351884,15.8815058 34.0134293,15.6634166 L27.6401559,23.9487001 C27.8729969,24.5887266 28,25.2795815 28,26.0000995 C28,29.313808 25.3137085,32.0000995 22,32.0000995 C18.6862915,32.0000995 16,29.313808 16,26.0000995 C16,25.4256215 16.0807368,24.8700006 16.2314826,24.3439645 L12.1650906,19.5975773 C11.4934729,19.8575348 10.7633853,20.0000995 10,20.0000995 C9.07406423,20.0000995 8.19711642,19.7903571 7.41407553,19.4157912 L3.41421356,23.4143131 C2.63316498,24.1953617 1.36683502,24.1953617 0.585786438,23.4143131 C-0.195262146,22.6332645 -0.195262146,21.3669345 0.585786438,20.585886 L4.58430829,16.586024 C4.20974241,15.8029831 4,14.9260353 4,14.0000995 C4,10.686391 6.6862915,8.00009953 10,8.00009953 C13.3137085,8.00009953 16,10.686391 16,14.0000995 C16,15.0904619 15.7091519,16.1128931 15.2008056,16.9940431 L18.6523509,21.020078 C19.608579,20.3760194 20.7603891,20.0000995 22,20.0000995 C23.0965694,20.0000995 24.1244319,20.2942684 25.0089779,20.8079965 L30.8954678,13.1550479 C30.3277351,12.2384366 30,11.1575414 30,10.0000995 C30,6.68639103 32.6862915,4.00009953 36,4.00009953 C36.6054314,4.00009953 37.189919,4.08977104 37.7409057,4.25655717 L40.414752,0.780678005 C41.0882199,-0.0948302781 42.3439132,-0.258616362 43.2194215,0.414851548 Z M22,24.0000995 C20.8954305,24.0000995 20,24.89553 20,26.0000995 C20,27.104669 20.8954305,28.0000995 22,28.0000995 C23.1045695,28.0000995 24,27.104669 24,26.0000995 C24,24.89553 23.1045695,24.0000995 22,24.0000995 Z M10,12.0000995 C8.8954305,12.0000995 8,12.89553 8,14.0000995 C8,15.104669 8.8954305,16.0000995 10,16.0000995 C11.1045695,16.0000995 12,15.104669 12,14.0000995 C12,12.89553 11.1045695,12.0000995 10,12.0000995 Z M36,8.00009953 C34.8954305,8.00009953 34,8.89553003 34,10.0000995 C34,11.104669 34.8954305,12.0000995 36,12.0000995 C37.1045695,12.0000995 38,11.104669 38,10.0000995 C38,8.89553003 37.1045695,8.00009953 36,8.00009953 Z" id="path-3"></path>
    </defs>
    <g id="Page-1" stroke="none" stroke-width="1" fill="none" fill-rule="evenodd">
        <g id="Sugar---Free-SVG-Icons" transform="translate(-118.000000, -855.000000)">
            <g id="Icons" transform="translate(48.000000, 197.000000)">
                <g id="2X" transform="translate(0.000000, 335.000000)">
                    <g id="Icons" transform="translate(0.000000, 43.000000)">
                        <g id="graph/poly" transform="translate(68.000000, 272.000000)">
                            <g transform="translate(2.000000, 8.000000)">
                                <g id="Color/Fill" transform="translate(6.000000, 6.000000)">
                                    <mask id="mask-2" fill="white">
                                        <use xlink:href="#path-1"></use>
                                    </mask>
                                    <use id="Mask" fill="#D8D8D8" xlink:href="#path-1"></use>
                                    <g mask="url(#mask-2)" fill="#9BAEC8">
                                        <g transform="translate(-8.000000, -14.000000)">
                                            <rect x="0" y="0" width="48" height="48"></rect>
                                        </g>
                                    </g>
                                </g>
                                <g id="Color/Stroke">
                                    <mask id="mask-4" fill="white">
                                        <use xlink:href="#path-3"></use>
                                    </mask>
                                    <use id="Mask" fill="#000000" fill-rule="nonzero" xlink:href="#path-3"></use>
                                    <g mask="url(#mask-4)" fill="#191B22">
                                        <g transform="translate(-2.000000, -8.000000)">
                                            <rect x="0" y="0" width="48" height="48"></rect>
                                        </g>
                                    </g>
                                </g>
                            </g>
                        </g>
                    </g>
                </g>
            </g>
        </g>
    </g>
</svg>