<?xml version="1.0" encoding="UTF-8"?>
<svg width="32px" height="44px" viewBox="0 0 32 44" version="1.1" xmlns="http://www.w3.org/2000/svg" xmlns:xlink="http://www.w3.org/1999/xlink">
    <!-- Generator: Sketch 58 (84663) - https://sketch.com -->
    <title>bag</title>
    <desc>Created with Sketch.</desc>
    <defs>
        <path d="M23.8787891,12 L24,16 L0,16 L0,12.0915668 L23.8787891,12 Z M23.8787891,0 L24,6 L0,6 L0,0.137350156 L23.8787891,0 Z" id="path-1"></path>
        <path d="M16,0 C21.5228475,0 26,4.4771525 26,10 L26,12 L28,12 C30.209139,12 32,13.790861 32,16 L32,40 C32,42.209139 30.209139,44 28,44 L4,44 C1.790861,44 0,42.209139 0,40 L0,16 C0,13.790861 1.790861,12 4,12 L6,12 L6,10 C6,4.4771525 10.4771525,0 16,0 Z M28,36 L4,36 L4,40 L28,40 L28,36 Z M28,16 L4,16 L4,32 L28,32 L28,16 Z M16,4 C12.6862915,4 10,6.6862915 10,10 L10,12 L22,12 L22,10 C22,6.6862915 19.3137085,4 16,4 Z" id="path-3"></path>
    </defs>
    <g id="Page-1" stroke="none" stroke-width="1" fill="none" fill-rule="evenodd">
        <g id="Sugar---Free-SVG-Icons" transform="translate(-56.000000, -781.000000)">
            <g id="Icons" transform="translate(48.000000, 197.000000)">
                <g id="2X" transform="translate(0.000000, 335.000000)">
                    <g id="Icons" transform="translate(0.000000, 43.000000)">
                        <g id="bag" transform="translate(0.000000, 204.000000)">
                            <g transform="translate(8.000000, 2.000000)">
                                <g id="Color/Fill" transform="translate(4.000000, 26.000000)">
                                    <mask id="mask-2" fill="white">
                                        <use xlink:href="#path-1"></use>
                                    </mask>
                                    <use id="Mask" fill="#D8D8D8" xlink:href="#path-1"></use>
                                    <g mask="url(#mask-2)" fill="#9BAEC8">
                                        <g transform="translate(-12.000000, -28.000000)">
                                            <rect x="0" y="0" width="48" height="48"></rect>
                                        </g>
                                    </g>
                                </g>
                                <g id="Color/Stroke">
                                    <mask id="mask-4" fill="white">
                                        <use xlink:href="#path-3"></use>
                                    </mask>
                                    <use id="Mask" fill="#000000" fill-rule="nonzero" xlink:href="#path-3"></use>
                                    <g mask="url(#mask-4)" fill="#191B22">
                                        <g transform="translate(-8.000000, -2.000000)">
                                            <rect x="0" y="0" width="48" height="48"></rect>
                                        </g>
                                    </g>
                                </g>
                            </g>
                        </g>
                    </g>
                </g>
            </g>
        </g>
    </g>
</svg>