<?xml version="1.0" encoding="UTF-8"?>
<svg width="40px" height="40px" viewBox="0 0 40 40" version="1.1" xmlns="http://www.w3.org/2000/svg" xmlns:xlink="http://www.w3.org/1999/xlink">
    <!-- Generator: Sketch 58 (84663) - https://sketch.com -->
    <title>calendar</title>
    <desc>Created with Sketch.</desc>
    <defs>
        <path d="M36,22 L36,26 L0,26 L0,22 L36,22 Z M36,0 L36,4 L0,4 L0,0 L36,0 Z" id="path-1"></path>
        <path d="M8,4 L8,8 L4,8 L4,14 L36,14 L36,8 L32,8 L32,4 L36,4 C38.209139,4 40,5.790861 40,8 L40,36 C40,38.209139 38.209139,40 36,40 L4,40 C1.790861,40 0,38.209139 0,36 L0,8 C0,5.790861 1.790861,4 4,4 L8,4 Z M36,18 L4,18 L4,36 L36,36 L36,18 Z M10,28 L10,32 L6,32 L6,28 L10,28 Z M18,28 L18,32 L14,32 L14,28 L18,28 Z M26,28 L26,32 L22,32 L22,28 L26,28 Z M34,28 L34,32 L30,32 L30,28 L34,28 Z M18,20 L18,24 L14,24 L14,20 L18,20 Z M26,20 L26,24 L22,24 L22,20 L26,20 Z M34,20 L34,24 L30,24 L30,20 L34,20 Z M12,0 C13.1045695,0 14,0.8954305 14,2 L14,8 C14,9.1045695 13.1045695,10 12,10 C10.8954305,10 10,9.1045695 10,8 L10,2 C10,0.8954305 10.8954305,0 12,0 Z M28,0 C29.1045695,0 30,0.8954305 30,2 L30,8 C30,9.1045695 29.1045695,10 28,10 C26.8954305,10 26,9.1045695 26,8 L26,2 C26,0.8954305 26.8954305,0 28,0 Z M24,4 L24,8 L16,8 L16,4 L24,4 Z" id="path-3"></path>
    </defs>
    <g id="Page-1" stroke="none" stroke-width="1" fill="none" fill-rule="evenodd">
        <g id="Sugar---Free-SVG-Icons" transform="translate(-460.000000, -919.000000)">
            <g id="Icons" transform="translate(48.000000, 197.000000)">
                <g id="2X" transform="translate(0.000000, 335.000000)">
                    <g id="Icons" transform="translate(0.000000, 43.000000)">
                        <g id="calendar" transform="translate(408.000000, 340.000000)">
                            <g transform="translate(4.000000, 4.000000)">
                                <g id="Color/Fill" transform="translate(2.000000, 12.000000)">
                                    <mask id="mask-2" fill="white">
                                        <use xlink:href="#path-1"></use>
                                    </mask>
                                    <use id="Mask" fill="#D8D8D8" xlink:href="#path-1"></use>
                                    <g mask="url(#mask-2)" fill="#9BAEC8">
                                        <g transform="translate(-6.000000, -16.000000)">
                                            <rect x="0" y="0" width="48" height="48"></rect>
                                        </g>
                                    </g>
                                </g>
                                <g id="Color/Stroke">
                                    <mask id="mask-4" fill="white">
                                        <use xlink:href="#path-3"></use>
                                    </mask>
                                    <use id="Mask" fill="#000000" fill-rule="nonzero" xlink:href="#path-3"></use>
                                    <g mask="url(#mask-4)" fill="#191B22">
                                        <g transform="translate(-4.000000, -4.000000)">
                                            <rect x="0" y="0" width="48" height="48"></rect>
                                        </g>
                                    </g>
                                </g>
                            </g>
                        </g>
                    </g>
                </g>
            </g>
        </g>
    </g>
</svg>