<?xml version="1.0" encoding="UTF-8"?>
<svg width="38px" height="40px" viewBox="0 0 38 40" version="1.1" xmlns="http://www.w3.org/2000/svg" xmlns:xlink="http://www.w3.org/1999/xlink">
    <!-- Generator: Sketch 58 (84663) - https://sketch.com -->
    <title>cookie</title>
    <desc>Created with Sketch.</desc>
    <defs>
        <path d="M12,14 C13.1045695,14 14,14.8954305 14,16 C14,17.1045695 13.1045695,18 12,18 C10.8954305,18 10,17.1045695 10,16 C10,14.8954305 10.8954305,14 12,14 Z M1,10 C1.55228475,10 2,10.4477153 2,11 C2,11.5522847 1.55228475,12 1,12 C0.44771525,12 0,11.5522847 0,11 C0,10.4477153 0.44771525,10 1,10 Z M3,0 C3.55228475,0 4,0.44771525 4,1 C4,1.55228475 3.55228475,2 3,2 C2.44771525,2 2,1.55228475 2,1 C2,0.44771525 2.44771525,0 3,0 Z" id="path-1"></path>
        <path d="M33.7984204,29.9678471 C29.4544807,29.6030453 25.9816133,26.1762739 25.5453354,21.8530499 C20.233512,21.6153574 16,17.2336745 16,11.8632019 C16,9.67301097 16.7041087,7.64727345 17.8983156,6 C10.0549823,7.02909618 4,13.7390406 4,21.8632019 C4,30.6997579 11.163444,37.8632019 20,37.8632019 C25.8789595,37.8632019 31.0173596,34.6924903 33.7984204,29.9678471 Z M37.2455644,31.9969352 C33.6774838,38.0586177 27.1668841,41.8632019 20,41.8632019 C8.954305,41.8632019 0,32.9088969 0,21.8632019 C0,11.7947081 7.47992429,3.33267712 17.3779496,2.03399202 C20.8586448,1.57730225 23.1973102,5.50557039 21.1368194,8.34778468 C20.4006446,9.36325476 20,10.577761 20,11.8632019 C20,15.0747969 22.530496,17.7141397 25.7241477,17.8570486 C27.7076081,17.9458041 29.3257733,19.4760178 29.5251219,21.4514299 C29.7685409,23.8635492 31.7143346,25.7787464 34.13316,25.9818781 C37.0694689,26.2284678 38.7403149,29.4575579 37.2455644,31.9969352 Z M20,36 C16.6862915,36 14,33.3137085 14,30 C14,26.6862915 16.6862915,24 20,24 C23.3137085,24 26,26.6862915 26,30 C26,33.3137085 23.3137085,36 20,36 Z M20,32 C21.1045695,32 22,31.1045695 22,30 C22,28.8954305 21.1045695,28 20,28 C18.8954305,28 18,28.8954305 18,30 C18,31.1045695 18.8954305,32 20,32 Z M9,28 C7.34314575,28 6,26.6568542 6,25 C6,23.3431458 7.34314575,22 9,22 C10.6568542,22 12,23.3431458 12,25 C12,26.6568542 10.6568542,28 9,28 Z M9,24 C8.44771525,24 8,24.4477153 8,25 C8,25.5522847 8.44771525,26 9,26 C9.55228475,26 10,25.5522847 10,25 C10,24.4477153 9.55228475,24 9,24 Z M11,18 C9.34314575,18 8,16.6568542 8,15 C8,13.3431458 9.34314575,12 11,12 C12.6568542,12 14,13.3431458 14,15 C14,16.6568542 12.6568542,18 11,18 Z M11,14 C10.4477153,14 10,14.4477153 10,15 C10,15.5522847 10.4477153,16 11,16 C11.5522847,16 12,15.5522847 12,15 C12,14.4477153 11.5522847,14 11,14 Z" id="path-3"></path>
    </defs>
    <g id="Page-1" stroke="none" stroke-width="1" fill="none" fill-rule="evenodd">
        <g id="Sugar---Free-SVG-Icons" transform="translate(-598.000000, -783.000000)">
            <g id="Icons" transform="translate(48.000000, 197.000000)">
                <g id="2X" transform="translate(0.000000, 335.000000)">
                    <g id="Icons" transform="translate(0.000000, 43.000000)">
                        <g id="cookie" transform="translate(544.000000, 204.000000)">
                            <g transform="translate(6.000000, 2.000000)">
                                <g id="Color/Fill" transform="translate(8.000000, 14.000000)">
                                    <mask id="mask-2" fill="white">
                                        <use xlink:href="#path-1"></use>
                                    </mask>
                                    <use id="Mask" fill="#D8D8D8" fill-rule="nonzero" xlink:href="#path-1"></use>
                                    <g mask="url(#mask-2)" fill="#9BAEC8">
                                        <g transform="translate(-14.000000, -16.000000)">
                                            <rect x="0" y="0" width="48" height="48"></rect>
                                        </g>
                                    </g>
                                </g>
                                <g id="Color/Stroke">
                                    <mask id="mask-4" fill="white">
                                        <use xlink:href="#path-3"></use>
                                    </mask>
                                    <use id="Mask" fill="#000000" fill-rule="nonzero" xlink:href="#path-3"></use>
                                    <g mask="url(#mask-4)" fill="#191B22">
                                        <g transform="translate(-6.000000, -2.000000)">
                                            <rect x="0" y="0" width="48" height="48"></rect>
                                        </g>
                                    </g>
                                </g>
                            </g>
                        </g>
                    </g>
                </g>
            </g>
        </g>
    </g>
</svg>