<?xml version="1.0" encoding="UTF-8"?>
<svg width="22px" height="22px" viewBox="0 0 22 22" version="1.1" xmlns="http://www.w3.org/2000/svg" xmlns:xlink="http://www.w3.org/1999/xlink">
    <!-- Generator: Sketch 58 (84663) - https://sketch.com -->
    <title>cross</title>
    <desc>Created with Sketch.</desc>
    <defs>
        <path d="M0.585786438,3.41421356 C-0.195262146,2.63316498 -0.195262146,1.36683502 0.585786438,0.585786438 C1.36683502,-0.195262146 2.63316498,-0.195262146 3.41421356,0.585786438 L19.4142136,16.5857864 C20.1952621,17.366835 20.1952621,18.633165 19.4142136,19.4142136 C18.633165,20.1952621 17.366835,20.1952621 16.5857864,19.4142136 L0.585786438,3.41421356 Z" id="path-1"></path>
        <path d="M3.41421356,0.585786438 L10,7.171 L16.5857864,0.585786438 C17.3257272,-0.154154326 18.5012114,-0.193098576 19.2869988,0.468953686 L19.4142136,0.585786438 C20.1952621,1.36683502 20.1952621,2.63316498 19.4142136,3.41421356 L19.4142136,3.41421356 L12.829,10 L19.4142136,16.5857864 C20.1952621,17.366835 20.1952621,18.633165 19.4142136,19.4142136 C18.633165,20.1952621 17.366835,20.1952621 16.5857864,19.4142136 L10,12.829 L3.41421356,19.4142136 C2.6742728,20.1541543 1.49878864,20.1930986 0.713001205,19.5310463 L0.585786438,19.4142136 C-0.195262146,18.633165 -0.195262146,17.366835 0.585786438,16.5857864 L0.585786438,16.5857864 L7.171,10 L0.585786438,3.41421356 C-0.195262146,2.63316498 -0.195262146,1.36683502 0.585786438,0.585786438 C1.36683502,-0.195262146 2.63316498,-0.195262146 3.41421356,0.585786438 Z" id="path-3"></path>
    </defs>
    <g id="Page-1" stroke="none" stroke-width="1" fill="none" fill-rule="evenodd">
        <g id="Sugar---Free-SVG-Icons" transform="translate(-606.000000, -859.000000)">
            <g id="Icons" transform="translate(48.000000, 197.000000)">
                <g id="2X" transform="translate(0.000000, 335.000000)">
                    <g id="Icons" transform="translate(0.000000, 43.000000)">
                        <g id="cross" transform="translate(544.000000, 272.000000)">
                            <g id="Color/Fill" transform="translate(16.000000, 12.000000)">
                                <mask id="mask-2" fill="white">
                                    <use xlink:href="#path-1"></use>
                                </mask>
                                <use id="Mask" fill="#D8D8D8" fill-rule="nonzero" xlink:href="#path-1"></use>
                                <g mask="url(#mask-2)" fill="#9BAEC8">
                                    <g transform="translate(-16.000000, -12.000000)">
                                        <rect x="0" y="0" width="48" height="48"></rect>
                                    </g>
                                </g>
                            </g>
                            <g transform="translate(24.000000, 24.000000) rotate(-90.000000) translate(-24.000000, -24.000000) " id="Color/Stroke">
                                <g transform="translate(14.000000, 14.000000)">
                                    <mask id="mask-4" fill="white">
                                        <use xlink:href="#path-3"></use>
                                    </mask>
                                    <use id="Mask" fill="#000000" fill-rule="nonzero" xlink:href="#path-3"></use>
                                    <g mask="url(#mask-4)" fill="#191B22">
                                        <g transform="translate(-14.000000, -14.000000)">
                                            <rect x="0" y="0" width="48" height="48"></rect>
                                        </g>
                                    </g>
                                </g>
                            </g>
                        </g>
                    </g>
                </g>
            </g>
        </g>
    </g>
</svg>