<?xml version="1.0" encoding="UTF-8"?>
<svg width="44px" height="32px" viewBox="0 0 44 32" version="1.1" xmlns="http://www.w3.org/2000/svg" xmlns:xlink="http://www.w3.org/1999/xlink">
    <!-- Generator: Sketch 58 (84663) - https://sketch.com -->
    <title>currency</title>
    <desc>Created with Sketch.</desc>
    <defs>
        <path d="M36,20 L36,24 L0,24 L0,20 L36,20 Z M18,8 C20.209139,8 22,9.790861 22,12 C22,14.209139 20.209139,16 18,16 C15.790861,16 14,14.209139 14,12 C14,9.790861 15.790861,8 18,8 Z M36,0 L36,4 L0,4 L0,0 L36,0 Z" id="path-1"></path>
        <path d="M40,0 C42.209139,0 44,1.790861 44,4 L44,28 C44,30.209139 42.209139,32 40,32 L4,32 C1.790861,32 0,30.209139 0,28 L0,4 C0,1.790861 1.790861,0 4,0 L40,0 Z M40,4 L4,4 L4,28 L40,28 L40,4 Z M22,18 C23.1045695,18 24,17.1045695 24,16 C24,14.8954305 23.1045695,14 22,14 C20.8954305,14 20,14.8954305 20,16 C20,17.1045695 20.8954305,18 22,18 Z M12,22 C13.1045695,22 14,22.8954305 14,24 C14,25.1045695 13.1045695,26 12,26 L8,26 C6.8954305,26 6,25.1045695 6,24 C6,22.8954305 6.8954305,22 8,22 L12,22 Z M22,10 C25.3137085,10 28,12.6862915 28,16 C28,19.3137085 25.3137085,22 22,22 C18.6862915,22 16,19.3137085 16,16 C16,12.6862915 18.6862915,10 22,10 Z M36,6 C37.1045695,6 38,6.8954305 38,8 C38,9.1045695 37.1045695,10 36,10 L32,10 C30.8954305,10 30,9.1045695 30,8 C30,6.8954305 30.8954305,6 32,6 L36,6 Z" id="path-3"></path>
    </defs>
    <g id="Page-1" stroke="none" stroke-width="1" fill="none" fill-rule="evenodd">
        <g id="Sugar---Free-SVG-Icons" transform="translate(-662.000000, -719.000000)">
            <g id="Icons" transform="translate(48.000000, 197.000000)">
                <g id="2X" transform="translate(0.000000, 335.000000)">
                    <g id="Icons" transform="translate(0.000000, 43.000000)">
                        <g id="currency" transform="translate(612.000000, 136.000000)">
                            <g transform="translate(2.000000, 8.000000)">
                                <g id="Color/Fill" transform="translate(4.000000, 4.000000)">
                                    <mask id="mask-2" fill="white">
                                        <use xlink:href="#path-1"></use>
                                    </mask>
                                    <use id="Mask" fill="#D8D8D8" fill-rule="nonzero" xlink:href="#path-1"></use>
                                    <g mask="url(#mask-2)" fill="#9BAEC8">
                                        <g transform="translate(-6.000000, -12.000000)">
                                            <rect x="0" y="0" width="48" height="48"></rect>
                                        </g>
                                    </g>
                                </g>
                                <g id="Color/Stroke">
                                    <mask id="mask-4" fill="white">
                                        <use xlink:href="#path-3"></use>
                                    </mask>
                                    <use id="Mask" fill="#000000" fill-rule="nonzero" xlink:href="#path-3"></use>
                                    <g mask="url(#mask-4)" fill="#191B22">
                                        <g transform="translate(-2.000000, -8.000000)">
                                            <rect x="0" y="0" width="48" height="48"></rect>
                                        </g>
                                    </g>
                                </g>
                            </g>
                        </g>
                    </g>
                </g>
            </g>
        </g>
    </g>
</svg>