<?xml version="1.0" encoding="UTF-8"?>
<svg width="40px" height="44px" viewBox="0 0 40 44" version="1.1" xmlns="http://www.w3.org/2000/svg" xmlns:xlink="http://www.w3.org/1999/xlink">
    <!-- Generator: Sketch 58 (84663) - https://sketch.com -->
    <title>equalizer</title>
    <desc>Created with Sketch.</desc>
    <defs>
        <path d="M14,28 C15.1045695,28 16,28.8954305 16,30 C16,31.1045695 15.1045695,32 14,32 C12.8954305,32 12,31.1045695 12,30 C12,28.8954305 12.8954305,28 14,28 Z M2,14 C3.1045695,14 4,14.8954305 4,16 C4,17.1045695 3.1045695,18 2,18 C0.8954305,18 0,17.1045695 0,16 C0,14.8954305 0.8954305,14 2,14 Z M16,0 C17.1045695,0 18,0.8954305 18,2 C18,3.1045695 17.1045695,4 16,4 C14.8954305,4 14,3.1045695 14,2 C14,0.8954305 14.8954305,0 16,0 Z" id="path-1"></path>
        <path d="M24,28 C27.7279108,28 30.8602692,30.5498628 31.7481308,34.000644 L39,34 C39.5522847,34 40,34.4477153 40,35 L40,37 C40,37.5522847 39.5522847,38 39,38 L31.7478729,38.0003581 C30.8596627,41.4506308 27.7275499,44 24,44 C20.2724501,44 17.1403373,41.4506308 16.2521271,38.0003581 L1,38 C0.44771525,38 6.76353751e-17,37.5522847 0,37 L0,35 C-6.76353751e-17,34.4477153 0.44771525,34 1,34 L16.2518692,34.000644 C17.1397308,30.5498628 20.2720892,28 24,28 Z M24,32 C21.790861,32 20,33.790861 20,36 C20,38.209139 21.790861,40 24,40 C26.209139,40 28,38.209139 28,36 C28,33.790861 26.209139,32 24,32 Z M12,14 C15.7279108,14 18.8602692,16.5498628 19.7481308,20.000644 L39,20 C39.5522847,20 40,20.4477153 40,21 L40,23 C40,23.5522847 39.5522847,24 39,24 L19.7478729,24.0003581 C18.8596627,27.4506308 15.7275499,30 12,30 C8.2724501,30 5.14033727,27.4506308 4.25212715,24.0003581 L1,24 C0.44771525,24 6.76353751e-17,23.5522847 0,23 L0,21 C-6.76353751e-17,20.4477153 0.44771525,20 1,20 L4.25186923,20.000644 C5.13973081,16.5498628 8.27208922,14 12,14 Z M12,18 C9.790861,18 8,19.790861 8,22 C8,24.209139 9.790861,26 12,26 C14.209139,26 16,24.209139 16,22 C16,19.790861 14.209139,18 12,18 Z M26,0 C29.7279108,0 32.8602692,2.54986283 33.7481308,6.00064404 L39,6 C39.5522847,6 40,6.44771525 40,7 L40,9 C40,9.55228475 39.5522847,10 39,10 L33.7478729,10.0003581 C32.8596627,13.4506308 29.7275499,16 26,16 C22.2724501,16 19.1403373,13.4506308 18.2521271,10.0003581 L1,10 C0.44771525,10 6.76353751e-17,9.55228475 0,9 L0,7 C-6.76353751e-17,6.44771525 0.44771525,6 1,6 L18.2518692,6.00064404 C19.1397308,2.54986283 22.2720892,0 26,0 Z M26,4 C23.790861,4 22,5.790861 22,8 C22,10.209139 23.790861,12 26,12 C28.209139,12 30,10.209139 30,8 C30,5.790861 28.209139,4 26,4 Z" id="path-3"></path>
    </defs>
    <g id="Page-1" stroke="none" stroke-width="1" fill="none" fill-rule="evenodd">
        <g id="Sugar---Free-SVG-Icons" transform="translate(-256.000000, -645.000000)">
            <g id="Icons" transform="translate(48.000000, 197.000000)">
                <g id="2X" transform="translate(0.000000, 335.000000)">
                    <g id="Icons" transform="translate(0.000000, 43.000000)">
                        <g id="equalizer" transform="translate(204.000000, 68.000000)">
                            <g transform="translate(4.000000, 2.000000)">
                                <g id="Color/Fill" transform="translate(10.000000, 6.000000)">
                                    <mask id="mask-2" fill="white">
                                        <use xlink:href="#path-1"></use>
                                    </mask>
                                    <use id="Mask" fill="#D8D8D8" xlink:href="#path-1"></use>
                                    <g mask="url(#mask-2)" fill="#9BAEC8">
                                        <g transform="translate(-14.000000, -8.000000)">
                                            <rect x="0" y="0" width="48" height="48"></rect>
                                        </g>
                                    </g>
                                </g>
                                <g id="Color/Stroke">
                                    <mask id="mask-4" fill="white">
                                        <use xlink:href="#path-3"></use>
                                    </mask>
                                    <use id="Mask" fill="#000000" xlink:href="#path-3"></use>
                                    <g mask="url(#mask-4)" fill="#191B22">
                                        <g transform="translate(-4.000000, -2.000000)">
                                            <rect x="0" y="0" width="48" height="48"></rect>
                                        </g>
                                    </g>
                                </g>
                            </g>
                        </g>
                    </g>
                </g>
            </g>
        </g>
    </g>
</svg>