<?xml version="1.0" encoding="UTF-8"?>
<svg width="44px" height="44px" viewBox="0 0 44 44" version="1.1" xmlns="http://www.w3.org/2000/svg" xmlns:xlink="http://www.w3.org/1999/xlink">
    <!-- Generator: Sketch 58 (84663) - https://sketch.com -->
    <title>gear</title>
    <desc>Created with Sketch.</desc>
    <defs>
        <path d="M23.4815772,1.22984218 L23.7724609,1.29199219 L26.4394531,3.52050781 L30.2119141,3.52050781 L32.2841797,8.46972656 L28.71875,11.1386719 L28.71875,15.8447266 L32.2841797,20.4208984 L30.2119141,23.6816406 L26.4394531,23.6816406 L22.4238281,25.8779297 L22.4238281,31.5546875 L17.6005859,34.4433594 L12.5078125,30.0878906 L9.36816406,30.0878906 L5.61621094,34.4433594 L1.24316406,31.5546875 L1.24316406,25.8779297 C6.02220162,27.4943984 9.24882346,25.5029219 10.9230296,19.9035 C11.2720489,19.9668987 11.6321588,20 12,20 C15.3137085,20 18,17.3137085 18,14 C18,11.0670922 15.8956336,8.62568549 13.1144208,8.10329991 L13.1642558,7.94484099 C14.9350028,2.43197525 18.3741099,0.193642309 23.4815772,1.22984218 Z M12,12 C13.1045695,12 14,12.8954305 14,14 C14,15.1045695 13.1045695,16 12,16 C10.8954305,16 10,15.1045695 10,14 C10,12.8954305 10.8954305,12 12,12 Z" id="path-1"></path>
        <path d="M4,15.7335557 C6.21081192,16.9484361 7.70919419,19.2992351 7.70919419,22 C7.70919419,24.7007649 6.21081192,27.0515639 4,28.2664443 C4.24227089,28.9624299 4.52376815,29.6400446 4.84184427,30.2966409 C7.26397088,29.5927815 9.9853584,30.1956098 11.8948743,32.1051257 C13.8043902,34.0146416 14.4072185,36.7360291 13.7033591,39.1581557 C14.3599554,39.4762318 15.0375701,39.7577291 15.7335557,40 C16.9484361,37.7891881 19.2992351,36.2908058 22,36.2908058 C24.7007649,36.2908058 27.0515639,37.7891881 28.2664443,40 C28.9624299,39.7577291 29.6400446,39.4762318 30.2966409,39.1581557 C29.5927815,36.7360291 30.1956098,34.0146416 32.1051257,32.1051257 C34.0146416,30.1956098 36.7360291,29.5927815 39.1581557,30.2966409 C39.4762318,29.6400446 39.7577291,28.9624299 40,28.2664443 C37.7891881,27.0515639 36.2908058,24.7007649 36.2908058,22 C36.2908058,19.2992351 37.7891881,16.9484361 40,15.7335557 C39.7577291,15.0375701 39.4762318,14.3599554 39.1581557,13.7033591 C36.7360291,14.4072185 34.0146416,13.8043902 32.1051257,11.8948743 C30.1956098,9.9853584 29.5927815,7.26397088 30.2966409,4.84184427 C29.6400446,4.52376815 28.9624299,4.24227089 28.2664443,4 C27.0515639,6.21081192 24.7007649,7.70919419 22,7.70919419 C19.2992351,7.70919419 16.9484361,6.21081192 15.7335557,4 C15.0375701,4.24227089 14.3599554,4.52376815 13.7033591,4.84184427 C14.4072185,7.26397088 13.8043902,9.9853584 11.8948743,11.8948743 C9.9853584,13.8043902 7.26397088,14.4072185 4.84184427,13.7033591 C4.52376815,14.3599554 4.24227089,15.0375701 4,15.7335557 Z M29.5814416,0.222331135 C30.4210584,0.514599687 31.2419794,0.855160586 32.0405203,1.24199917 C33.7959649,2.09239234 34.6820576,4.08495904 34.1377449,5.95805225 C33.8185589,7.05643749 34.111664,8.24455838 34.9335528,9.06644718 C35.7554416,9.88833597 36.9435625,10.1814411 38.0419478,9.86225511 C39.915041,9.31794243 41.9076077,10.2040351 42.7580008,11.9594797 C43.1448394,12.7580206 43.4854003,13.5789416 43.7776689,14.4185584 C44.4193251,16.2618814 43.6369322,18.2991525 41.926377,19.239133 C40.9238246,19.7900533 40.2908058,20.8375419 40.2908058,22 C40.2908058,23.1624581 40.9238246,24.2099467 41.926377,24.760867 C43.6369322,25.7008475 44.4193251,27.7381186 43.7776689,29.5814416 C43.4854003,30.4210584 43.1448394,31.2419794 42.7580008,32.0405203 C41.9076077,33.7959649 39.915041,34.6820576 38.0419478,34.1377449 C36.9435625,33.8185589 35.7554416,34.111664 34.9335528,34.9335528 C34.111664,35.7554416 33.8185589,36.9435625 34.1377449,38.0419478 C34.6820576,39.915041 33.7959649,41.9076077 32.0405203,42.7580008 C31.2419794,43.1448394 30.4210584,43.4854003 29.5814416,43.7776689 C27.7381186,44.4193251 25.7008475,43.6369322 24.760867,41.926377 C24.2099467,40.9238246 23.1624581,40.2908058 22,40.2908058 C20.8375419,40.2908058 19.7900533,40.9238246 19.239133,41.926377 C18.2991525,43.6369322 16.2618814,44.4193251 14.4185584,43.7776689 C13.5789416,43.4854003 12.7580206,43.1448394 11.9594797,42.7580008 C10.2040351,41.9076077 9.31794243,39.915041 9.86225511,38.0419478 C10.1814411,36.9435625 9.88833597,35.7554416 9.06644718,34.9335528 C8.24455838,34.111664 7.05643749,33.8185589 5.95805225,34.1377449 C4.08495904,34.6820576 2.09239234,33.7959649 1.24199917,32.0405203 C0.855160586,31.2419794 0.514599686,30.4210584 0.222331135,29.5814416 C-0.419325123,27.7381186 0.363067785,25.7008475 2.07362304,24.760867 C3.07617539,24.2099467 3.70919419,23.1624581 3.70919419,22 C3.70919419,20.8375419 3.07617539,19.7900533 2.07362304,19.239133 C0.363067785,18.2991525 -0.419325123,16.2618814 0.222331135,14.4185584 C0.514599686,13.5789416 0.855160586,12.7580206 1.24199917,11.9594797 C2.09239234,10.2040351 4.08495904,9.31794243 5.95805225,9.86225511 C7.05643749,10.1814411 8.24455838,9.88833597 9.06644718,9.06644718 C9.88833597,8.24455838 10.1814411,7.05643749 9.86225511,5.95805225 C9.31794243,4.08495904 10.2040351,2.09239234 11.9594797,1.24199917 C12.7580206,0.855160586 13.5789416,0.514599687 14.4185584,0.222331135 C16.2618814,-0.419325123 18.2991525,0.363067785 19.239133,2.07362304 C19.7900533,3.07617539 20.8375419,3.70919419 22,3.70919419 C23.1624581,3.70919419 24.2099467,3.07617539 24.760867,2.07362304 C25.7008475,0.363067785 27.7381186,-0.419325123 29.5814416,0.222331135 Z M22,14 C17.581722,14 14,17.581722 14,22 C14,26.418278 17.581722,30 22,30 C26.418278,30 30,26.418278 30,22 C30,17.581722 26.418278,14 22,14 Z M22,18 C24.209139,18 26,19.790861 26,22 C26,24.209139 24.209139,26 22,26 C19.790861,26 18,24.209139 18,22 C18,19.790861 19.790861,18 22,18 Z" id="path-3"></path>
    </defs>
    <g id="Page-1" stroke="none" stroke-width="1" fill="none" fill-rule="evenodd">
        <g id="Sugar---Free-SVG-Icons" transform="translate(-390.000000, -645.000000)">
            <g id="Icons" transform="translate(48.000000, 197.000000)">
                <g id="2X" transform="translate(0.000000, 335.000000)">
                    <g id="Icons" transform="translate(0.000000, 43.000000)">
                        <g id="gear" transform="translate(340.000000, 68.000000)">
                            <g transform="translate(2.000000, 2.000000)">
                                <g id="Color/Fill" transform="translate(10.000000, 8.000000)">
                                    <mask id="mask-2" fill="white">
                                        <use xlink:href="#path-1"></use>
                                    </mask>
                                    <use id="Mask" fill="#D8D8D8" xlink:href="#path-1"></use>
                                    <g mask="url(#mask-2)" fill="#9BAEC8">
                                        <g transform="translate(-12.000000, -10.000000)">
                                            <rect x="0" y="0" width="48" height="48"></rect>
                                        </g>
                                    </g>
                                </g>
                                <g id="Color/Stroke">
                                    <mask id="mask-4" fill="white">
                                        <use xlink:href="#path-3"></use>
                                    </mask>
                                    <use id="Mask" fill="#000000" fill-rule="nonzero" xlink:href="#path-3"></use>
                                    <g mask="url(#mask-4)" fill="#191B22">
                                        <g transform="translate(-2.000000, -2.000000)">
                                            <rect x="0" y="0" width="48" height="48"></rect>
                                        </g>
                                    </g>
                                </g>
                            </g>
                        </g>
                    </g>
                </g>
            </g>
        </g>
    </g>
</svg>