<?xml version="1.0" encoding="UTF-8"?>
<svg width="40px" height="43px" viewBox="0 0 40 43" version="1.1" xmlns="http://www.w3.org/2000/svg" xmlns:xlink="http://www.w3.org/1999/xlink">
    <!-- Generator: Sketch 58 (84663) - https://sketch.com -->
    <title>power</title>
    <desc>Created with Sketch.</desc>
    <defs>
        <circle id="path-1" cx="10" cy="10" r="10"></circle>
        <path d="M13.1078466,5.53018967 C13.6387069,6.49882847 13.2838173,7.71441267 12.3151785,8.24527298 C10.994042,8.96931888 9.77453454,9.88231971 8.6862915,10.9705627 C2.43790283,17.2189514 2.43790283,27.3495911 8.6862915,33.5979797 C14.9346802,39.8463684 25.0653198,39.8463684 31.3137085,33.5979797 C37.5620972,27.3495911 37.5620972,17.2189514 31.3137085,10.9705627 C30.2864122,9.9432664 29.1420559,9.07203674 27.9053179,8.36840859 C26.945255,7.82219159 26.6097666,6.60111047 27.1559836,5.64104757 C27.7022006,4.68098467 28.9232817,4.34549628 29.8833446,4.89171327 C31.4305621,5.77198528 32.8610697,6.86106975 34.1421356,8.14213562 C41.9526215,15.9526215 41.9526215,28.615921 34.1421356,36.4264069 C26.3316498,44.2368927 13.6683502,44.2368927 5.85786438,36.4264069 C-1.95262146,28.615921 -1.95262146,15.9526215 5.85786438,8.14213562 C7.21506247,6.78493753 8.7397882,5.64343088 10.3927633,4.73752161 C11.3614021,4.2066613 12.5769863,4.56155088 13.1078466,5.53018967 Z M20.7157288,0 C21.2680135,-1.01453063e-16 21.7157288,0.44771525 21.7157288,1 L21.7157288,17 C21.7157288,17.5522847 21.2680135,18 20.7157288,18 L18.7157288,18 C18.163444,18 17.7157288,17.5522847 17.7157288,17 L17.7157288,1 C17.7157288,0.44771525 18.163444,1.01453063e-16 18.7157288,0 L20.7157288,0 Z" id="path-3"></path>
    </defs>
    <g id="Page-1" stroke="none" stroke-width="1" fill="none" fill-rule="evenodd">
        <g id="Sugar---Free-SVG-Icons" transform="translate(-52.000000, -645.000000)">
            <g id="Icons" transform="translate(48.000000, 197.000000)">
                <g id="2X" transform="translate(0.000000, 335.000000)">
                    <g id="Icons" transform="translate(0.000000, 43.000000)">
                        <g id="power" transform="translate(0.000000, 68.000000)">
                            <g transform="translate(4.000000, 2.000000)">
                                <g id="Color/Fill" transform="translate(10.000000, 12.000000)">
                                    <mask id="mask-2" fill="white">
                                        <use xlink:href="#path-1"></use>
                                    </mask>
                                    <use id="Mask" fill="#D8D8D8" xlink:href="#path-1"></use>
                                    <g mask="url(#mask-2)" fill="#9BAEC8">
                                        <g transform="translate(-14.000000, -14.000000)">
                                            <rect x="0" y="0" width="48" height="48"></rect>
                                        </g>
                                    </g>
                                </g>
                                <g id="Color/Stroke">
                                    <mask id="mask-4" fill="white">
                                        <use xlink:href="#path-3"></use>
                                    </mask>
                                    <use id="Mask" fill="#000000" fill-rule="nonzero" xlink:href="#path-3"></use>
                                    <g mask="url(#mask-4)" fill="#191B22">
                                        <g transform="translate(-4.000000, -2.000000)">
                                            <rect x="0" y="0" width="48" height="48"></rect>
                                        </g>
                                    </g>
                                </g>
                            </g>
                        </g>
                    </g>
                </g>
            </g>
        </g>
    </g>
</svg>