<?xml version="1.0" encoding="UTF-8"?>
<svg width="36px" height="44px" viewBox="0 0 36 44" version="1.1" xmlns="http://www.w3.org/2000/svg" xmlns:xlink="http://www.w3.org/1999/xlink">
    <!-- Generator: Sketch 58 (84663) - https://sketch.com -->
    <title>share</title>
    <desc>Created with Sketch.</desc>
    <defs>
        <path d="M22,28 C23.1045695,28 24,28.8954305 24,30 C24,31.1045695 23.1045695,32 22,32 C20.8954305,32 20,31.1045695 20,30 C20,28.8954305 20.8954305,28 22,28 Z M2,14 C3.1045695,14 4,14.8954305 4,16 C4,17.1045695 3.1045695,18 2,18 C0.8954305,18 0,17.1045695 0,16 C0,14.8954305 0.8954305,14 2,14 Z M22,0 C23.1045695,0 24,0.8954305 24,2 C24,3.1045695 23.1045695,4 22,4 C20.8954305,4 20,3.1045695 20,2 C20,0.8954305 20.8954305,0 22,0 Z" id="path-1"></path>
        <path d="M28,0 C32.418278,0 36,3.581722 36,8 C36,12.418278 32.418278,16 28,16 C26.265947,16 24.6607527,15.4482904 23.3503744,14.5108286 L15.6467307,19.6417039 C15.8763759,20.3871934 16,21.1791597 16,22 C16,22.8233997 15.8756038,23.6177451 15.6445794,24.3652681 L23.3138412,29.515463 C24.630866,28.5620334 26.249798,28 28,28 C32.418278,28 36,31.581722 36,36 C36,40.418278 32.418278,44 28,44 C23.581722,44 20,40.418278 20,36 C20,34.7894646 20.268869,33.641727 20.7501469,32.6132472 L13.5397928,27.7715564 C12.1022579,29.1517176 10.1501925,30 8,30 C3.581722,30 0,26.418278 0,22 C0,17.581722 3.581722,14 8,14 C10.1526588,14 12.1067359,14.8502296 13.5447375,16.233195 L20.7675099,11.4236111 C20.2753402,10.3857237 20,9.2250164 20,8 C20,3.581722 23.581722,0 28,0 Z M28,32 C25.790861,32 24,33.790861 24,36 C24,38.209139 25.790861,40 28,40 C30.209139,40 32,38.209139 32,36 C32,33.790861 30.209139,32 28,32 Z M8,18 C5.790861,18 4,19.790861 4,22 C4,24.209139 5.790861,26 8,26 C10.209139,26 12,24.209139 12,22 C12,19.790861 10.209139,18 8,18 Z M28,4 C25.790861,4 24,5.790861 24,8 C24,10.209139 25.790861,12 28,12 C30.209139,12 32,10.209139 32,8 C32,5.790861 30.209139,4 28,4 Z" id="path-3"></path>
    </defs>
    <g id="Page-1" stroke="none" stroke-width="1" fill="none" fill-rule="evenodd">
        <g id="Sugar---Free-SVG-Icons" transform="translate(-188.000000, -645.000000)">
            <g id="Icons" transform="translate(48.000000, 197.000000)">
                <g id="2X" transform="translate(0.000000, 335.000000)">
                    <g id="Icons" transform="translate(0.000000, 43.000000)">
                        <g id="share" transform="translate(136.000000, 68.000000)">
                            <g transform="translate(4.000000, 2.000000)">
                                <g id="Color/Fill" transform="translate(6.000000, 6.000000)">
                                    <mask id="mask-2" fill="white">
                                        <use xlink:href="#path-1"></use>
                                    </mask>
                                    <use id="Mask" fill="#D8D8D8" xlink:href="#path-1"></use>
                                    <g mask="url(#mask-2)" fill="#9BAEC8">
                                        <g transform="translate(-10.000000, -8.000000)">
                                            <rect x="0" y="0" width="48" height="48"></rect>
                                        </g>
                                    </g>
                                </g>
                                <g id="Color/Stroke">
                                    <mask id="mask-4" fill="white">
                                        <use xlink:href="#path-3"></use>
                                    </mask>
                                    <use id="Mask" fill="#000000" fill-rule="nonzero" xlink:href="#path-3"></use>
                                    <g mask="url(#mask-4)" fill="#191B22">
                                        <g transform="translate(-4.000000, -2.000000)">
                                            <rect x="0" y="0" width="48" height="48"></rect>
                                        </g>
                                    </g>
                                </g>
                            </g>
                        </g>
                    </g>
                </g>
            </g>
        </g>
    </g>
</svg>