<?xml version="1.0" encoding="UTF-8"?>
<svg width="44px" height="44px" viewBox="0 0 44 44" version="1.1" xmlns="http://www.w3.org/2000/svg" xmlns:xlink="http://www.w3.org/1999/xlink">
    <!-- Generator: Sketch 58 (84663) - https://sketch.com -->
    <title>ticket</title>
    <desc>Created with Sketch.</desc>
    <defs>
        <polygon id="path-1" points="0 12 4 16 8 16 12 16 12 20 10 24 16 28 28 16 12 0.226074219"></polygon>
        <path d="M39.2810863,10.7071068 C41.3852161,10.7071068 43.0909502,12.412841 43.0909502,14.5169707 L43.0909502,18.3268347 C43.0909502,20.4309644 41.3852161,22.1366986 39.2810863,22.1366986 C38.2290214,22.1366986 37.3761543,22.9895657 37.3761543,24.0416306 C37.3761543,25.0936954 38.2290214,25.9465625 39.2810863,25.9465625 C41.3852161,25.9465625 43.0909502,27.6522967 43.0909502,29.7564265 L43.0909502,33.5662904 C43.0909502,35.6704202 41.3852161,37.3761543 39.2810863,37.3761543 L8.80217481,37.3761543 C6.69804506,37.3761543 4.99231088,35.6704202 4.99231088,33.5662904 L4.99231088,29.7564265 C4.99231088,27.6522967 6.69804506,25.9465625 8.80217481,25.9465625 C9.85423969,25.9465625 10.7071068,25.0936954 10.7071068,24.0416306 C10.7071068,22.9895657 9.85423969,22.1366986 8.80217481,22.1366986 C6.69804506,22.1366986 4.99231088,20.4309644 4.99231088,18.3268347 L4.99231088,14.5169707 C4.99231088,12.412841 6.69804506,10.7071068 8.80217481,10.7071068 L39.2810863,10.7071068 Z M39.2810863,14.5169707 L8.80217481,14.5169707 L8.80217481,18.3268347 C11.9583694,18.3268347 14.5169707,20.8854359 14.5169707,24.0416306 C14.5169707,27.1978252 11.9583694,29.7564265 8.80217481,29.7564265 L8.80217481,33.5662904 L39.2810863,33.5662904 L39.2810863,29.7564265 C36.1248917,29.7564265 33.5662904,27.1978252 33.5662904,24.0416306 C33.5662904,20.8854359 36.1248917,18.3268347 39.2810863,18.3268347 L39.2810863,14.5169707 Z M24.0416306,16.4219027 C25.0936954,16.4219027 25.9465625,17.2913803 25.9465625,18.3639353 L25.9465625,29.7193259 C25.9465625,30.7918808 25.0936954,31.6613584 24.0416306,31.6613584 C22.9895657,31.6613584 22.1366986,30.7918808 22.1366986,29.7193259 L22.1366986,18.3639353 C22.1366986,17.2913803 22.9895657,16.4219027 24.0416306,16.4219027 Z" id="path-3"></path>
    </defs>
    <g id="Page-1" stroke="none" stroke-width="1" fill="none" fill-rule="evenodd">
        <g id="Sugar---Free-SVG-Icons" transform="translate(-458.000000, -781.000000)">
            <g id="Icons" transform="translate(48.000000, 197.000000)">
                <g id="2X" transform="translate(0.000000, 335.000000)">
                    <g id="Icons" transform="translate(0.000000, 43.000000)">
                        <g id="ticket" transform="translate(408.000000, 204.000000)">
                            <g>
                                <g id="Color/Fill" transform="translate(4.000000, 16.000000)">
                                    <mask id="mask-2" fill="white">
                                        <use xlink:href="#path-1"></use>
                                    </mask>
                                    <use id="Mask" fill="#D8D8D8" xlink:href="#path-1"></use>
                                    <g mask="url(#mask-2)" fill="#9BAEC8">
                                        <g transform="translate(-4.000000, -16.000000)">
                                            <rect x="0" y="0" width="48" height="48"></rect>
                                        </g>
                                    </g>
                                </g>
                                <g id="Color/Stroke">
                                    <mask id="mask-4" fill="white">
                                        <use xlink:href="#path-3"></use>
                                    </mask>
                                    <use id="Mask" fill="#000000" fill-rule="nonzero" transform="translate(24.041631, 24.041631) rotate(-45.000000) translate(-24.041631, -24.041631) " xlink:href="#path-3"></use>
                                    <g mask="url(#mask-4)" fill="#191B22">
                                        <rect x="0" y="0" width="48" height="48"></rect>
                                    </g>
                                </g>
                            </g>
                        </g>
                    </g>
                </g>
            </g>
        </g>
    </g>
</svg>