<?xml version="1.0" encoding="UTF-8"?>
<svg width="40px" height="36px" viewBox="0 0 40 36" version="1.1" xmlns="http://www.w3.org/2000/svg" xmlns:xlink="http://www.w3.org/1999/xlink">
    <!-- Generator: Sketch 58 (84663) - https://sketch.com -->
    <title>upload</title>
    <desc>Created with Sketch.</desc>
    <defs>
        <path d="M32,22 L32,26 L0,26 L0,22 L32,22 Z M15.4142136,0.585786438 C16.1952621,1.36683502 16.1952621,2.63316498 15.4142136,3.41421356 L11.4142136,7.41421356 C10.633165,8.19526215 9.36683502,8.19526215 8.58578644,7.41421356 C7.80473785,6.63316498 7.80473785,5.36683502 8.58578644,4.58578644 L12.5857864,0.585786438 C13.366835,-0.195262146 14.633165,-0.195262146 15.4142136,0.585786438 Z" id="path-1"></path>
        <path d="M38,18 C39.1045695,18 40,18.8954305 40,20 L40,34 C40,35.1045695 39.1045695,36 38,36 L2,36 C0.8954305,36 0,35.1045695 0,34 L0,20 C0,18.8954305 0.8954305,18 2,18 C3.1045695,18 4,18.8954305 4,20 L4,32 L36,32 L36,20 C36,18.8954305 36.8954305,18 38,18 Z M21.4142136,0.585786438 L29.4142136,8.58578644 C30.1952621,9.36683502 30.1952621,10.633165 29.4142136,11.4142136 C28.633165,12.1952621 27.366835,12.1952621 26.5857864,11.4142136 L22,6.828 L22,24.0029416 C22,25.1058865 21.1045695,26 20,26 C18.8954305,26 18,25.1058865 18,24.0029416 L18,6.828 L13.4142136,11.4142136 C12.633165,12.1952621 11.366835,12.1952621 10.5857864,11.4142136 C9.80473785,10.633165 9.80473785,9.36683502 10.5857864,8.58578644 L18.5857864,0.585786438 C19.366835,-0.195262146 20.633165,-0.195262146 21.4142136,0.585786438 Z" id="path-3"></path>
    </defs>
    <g id="Page-1" stroke="none" stroke-width="1" fill="none" fill-rule="evenodd">
        <g id="Sugar---Free-SVG-Icons" transform="translate(-392.000000, -921.000000)">
            <g id="Icons" transform="translate(48.000000, 197.000000)">
                <g id="2X" transform="translate(0.000000, 335.000000)">
                    <g id="Icons" transform="translate(0.000000, 43.000000)">
                        <g id="upload" transform="translate(340.000000, 340.000000)">
                            <g transform="translate(4.000000, 6.000000)">
                                <g id="Color/Fill" transform="translate(4.000000, 6.000000)">
                                    <mask id="mask-2" fill="white">
                                        <use xlink:href="#path-1"></use>
                                    </mask>
                                    <use id="Mask" fill="#D8D8D8" fill-rule="nonzero" xlink:href="#path-1"></use>
                                    <g mask="url(#mask-2)" fill="#9BAEC8">
                                        <g transform="translate(-8.000000, -12.000000)">
                                            <rect x="0" y="0" width="48" height="48"></rect>
                                        </g>
                                    </g>
                                </g>
                                <g id="Color/Stroke">
                                    <mask id="mask-4" fill="white">
                                        <use xlink:href="#path-3"></use>
                                    </mask>
                                    <use id="Mask" fill="#000000" fill-rule="nonzero" xlink:href="#path-3"></use>
                                    <g mask="url(#mask-4)" fill="#191B22">
                                        <g transform="translate(-4.000000, -6.000000)">
                                            <rect x="0" y="0" width="48" height="48"></rect>
                                        </g>
                                    </g>
                                </g>
                            </g>
                        </g>
                    </g>
                </g>
            </g>
        </g>
    </g>
</svg>