<?xml version="1.0" encoding="UTF-8"?>
<svg width="44px" height="28px" viewBox="0 0 44 28" version="1.1" xmlns="http://www.w3.org/2000/svg" xmlns:xlink="http://www.w3.org/1999/xlink">
    <!-- Generator: Sketch 58 (84663) - https://sketch.com -->
    <title>video-camera</title>
    <desc>Created with Sketch.</desc>
    <defs>
        <rect id="path-1" x="0" y="0" width="26" height="4"></rect>
        <path d="M4,4 L4,24 L30,24 L30,4 L4,4 Z M30,0 C32.209139,0 34,1.790861 34,4 L34,8.19 L41.0267143,4.24356264 C42.3668128,3.52635557 44,4.4790963 44,5.97806711 L44,22.0219329 C44,23.5209037 42.3668128,24.4736444 41.0267143,23.7564374 L34,19.824 L34,24 C34,26.209139 32.209139,28 30,28 L4,28 C1.790861,28 0,26.209139 0,24 L0,4 C0,1.790861 1.790861,0 4,0 L30,0 Z M39.9116211,9.36739873 L32,14.1223274 L39.9116211,18.877256 L39.9116211,9.36739873 Z M30,16 L30,20 L4,20 L4,16 L30,16 Z M26,5 C27.6568542,5 29,6.34314575 29,8 C29,9.65685425 27.6568542,11 26,11 C24.3431458,11 23,9.65685425 23,8 C23,6.34314575 24.3431458,5 26,5 Z" id="path-3"></path>
    </defs>
    <g id="Page-1" stroke="none" stroke-width="1" fill="none" fill-rule="evenodd">
        <g id="Sugar---Free-SVG-Icons" transform="translate(-186.000000, -721.000000)">
            <g id="Icons" transform="translate(48.000000, 197.000000)">
                <g id="2X" transform="translate(0.000000, 335.000000)">
                    <g id="Icons" transform="translate(0.000000, 43.000000)">
                        <g id="video-camera" transform="translate(136.000000, 136.000000)">
                            <g transform="translate(2.000000, 10.000000)">
                                <g id="Color/Fill" transform="translate(4.000000, 20.000000)">
                                    <mask id="mask-2" fill="white">
                                        <use xlink:href="#path-1"></use>
                                    </mask>
                                    <use id="Mask" fill="#D8D8D8" xlink:href="#path-1"></use>
                                    <g mask="url(#mask-2)" fill="#9BAEC8">
                                        <g transform="translate(-6.000000, -30.000000)">
                                            <rect x="0" y="0" width="48" height="48"></rect>
                                        </g>
                                    </g>
                                </g>
                                <g id="Color/Stroke">
                                    <mask id="mask-4" fill="white">
                                        <use xlink:href="#path-3"></use>
                                    </mask>
                                    <use id="Mask" fill="#000000" fill-rule="nonzero" xlink:href="#path-3"></use>
                                    <g mask="url(#mask-4)" fill="#191B22">
                                        <g transform="translate(-2.000000, -10.000000)">
                                            <rect x="0" y="0" width="48" height="48"></rect>
                                        </g>
                                    </g>
                                </g>
                            </g>
                        </g>
                    </g>
                </g>
            </g>
        </g>
    </g>
</svg>