<?xml version="1.0" encoding="UTF-8"?>
<svg width="28px" height="44px" viewBox="0 0 28 44" version="1.1" xmlns="http://www.w3.org/2000/svg" xmlns:xlink="http://www.w3.org/1999/xlink">
    <!-- Generator: Sketch 58 (84663) - https://sketch.com -->
    <title>watch</title>
    <desc>Created with Sketch.</desc>
    <defs>
        <path d="M10,32 L10,40 L2,40 L2,32 L10,32 Z M6,14 C9.3137085,14 12,16.6862915 12,20 C12,23.3137085 9.3137085,26 6,26 C2.6862915,26 0,23.3137085 0,20 C0,16.6862915 2.6862915,14 6,14 Z M10,0 L10,8 L2,8 L2,0 L10,0 Z" id="path-1"></path>
        <path d="M14,32 C19.5228475,32 24,27.5228475 24,22 C24,16.4771525 19.5228475,12 14,12 C8.4771525,12 4,16.4771525 4,22 C4,27.5228475 8.4771525,32 14,32 Z M18.0195141,0 C18.9775271,0 19.8023612,0.760223865 19.990243,1.81635945 L21.4757542,10.1609258 C25.3966031,12.6419314 28,17.0169377 28,22 C28,26.9830623 25.3966031,31.3580686 21.4757542,33.8390742 L19.990243,42.1836405 C19.8122497,43.1841901 19.0625873,43.9191567 18.1695991,43.99375 L18.0195141,44 L9.98048594,44 C9.07289465,44 8.2848324,43.3176938 8.04464237,42.347872 L8.00975703,42.1836405 L6.52524839,33.8397086 C2.6038407,31.3588144 0,26.983487 0,22 C0,17.016513 2.6038407,12.6411856 6.52524839,10.1602914 L8.00975703,1.81635945 C8.19763884,0.760223865 9.02247291,0 9.98048594,0 L18.0195141,0 Z M17.0505535,35.6666848 C16.0685513,35.8849107 15.0477159,36 14,36 C12.9522841,36 11.9314487,35.8849107 10.9494465,35.6666848 L11.6280926,39.4810402 L16.3719074,39.4810402 L17.0505535,35.6666848 Z M16.3719074,4.51895984 L11.6280926,4.51895984 L10.9494465,8.33331516 C11.9314487,8.11508927 12.9522841,8 14,8 C15.0477159,8 16.0685513,8.11508927 17.0505535,8.33331516 L16.3719074,4.51895984 Z" id="path-3"></path>
    </defs>
    <g id="Page-1" stroke="none" stroke-width="1" fill="none" fill-rule="evenodd">
        <g id="Sugar---Free-SVG-Icons" transform="translate(-534.000000, -713.000000)">
            <g id="Icons" transform="translate(48.000000, 197.000000)">
                <g id="2X" transform="translate(0.000000, 335.000000)">
                    <g id="Icons" transform="translate(0.000000, 43.000000)">
                        <g id="watch" transform="translate(476.000000, 136.000000)">
                            <g transform="translate(10.000000, 2.000000)">
                                <g id="Color/Fill" transform="translate(8.000000, 2.000000)">
                                    <mask id="mask-2" fill="white">
                                        <use xlink:href="#path-1"></use>
                                    </mask>
                                    <use id="Mask" fill="#D8D8D8" xlink:href="#path-1"></use>
                                    <g mask="url(#mask-2)" fill="#9BAEC8">
                                        <g transform="translate(-18.000000, -4.000000)">
                                            <rect x="0" y="0" width="48" height="48"></rect>
                                        </g>
                                    </g>
                                </g>
                                <g id="Color/Stroke">
                                    <mask id="mask-4" fill="white">
                                        <use xlink:href="#path-3"></use>
                                    </mask>
                                    <use id="Mask" fill="#000000" fill-rule="nonzero" xlink:href="#path-3"></use>
                                    <g mask="url(#mask-4)" fill="#191B22">
                                        <g transform="translate(-10.000000, -2.000000)">
                                            <rect x="0" y="0" width="48" height="48"></rect>
                                        </g>
                                    </g>
                                </g>
                            </g>
                        </g>
                    </g>
                </g>
            </g>
        </g>
    </g>
</svg>