<?xml version="1.0" encoding="UTF-8"?>
<svg width="47px" height="46px" viewBox="0 0 47 46" version="1.1" xmlns="http://www.w3.org/2000/svg" xmlns:xlink="http://www.w3.org/1999/xlink">
    <!-- Generator: Sketch 58 (84663) - https://sketch.com -->
    <title>wrench</title>
    <desc>Created with Sketch.</desc>
    <defs>
        <path d="M0.30078125,31.6699219 L15,17 C20.0247396,11.4303385 24.0904948,9.27766927 27.1972656,10.5419922 C27.1972656,10.5419922 30.140625,7.63964844 36.0273438,1.83496094 L38.4570313,1.83496094 C41.516276,7.63964844 40.7063802,12.6121419 36.0273437,16.7524414 C29.0087891,22.9628906 23.5368147,20.3652344 20.2859855,20.3652344 C20.2859855,20.3652344 15.0291986,25.3014323 4.515625,35.1738281 L0.30078125,31.6699219 Z" id="path-1"></path>
        <path d="M23.1837662,8.20783249 C19.882717,10.3028977 17.6984848,13.9438459 17.6984848,18.0847019 C17.6984848,23.2930499 21.1540455,27.7105195 25.9411255,29.2557329 L25.9411255,51.7788285 L31.9411255,51.7788285 L31.9411255,29.6386728 C37.4967111,28.6095194 41.6984848,23.8279431 41.6984848,18.0847019 C41.6984848,13.5271346 39.0525159,9.57515327 35.1837662,7.62335999 L35.1837662,19.4008693 C35.1837662,20.4832525 34.2883357,21.3606975 33.1837662,21.3606975 L25.1837662,21.3606975 C24.0791967,21.3606975 23.1837662,20.4832525 23.1837662,19.4008693 L23.1837662,8.20783249 Z M27.1837662,17.4410412 L31.1837662,17.4410412 L31.1837662,7.62335999 C31.1837662,4.68930778 34.3526311,2.79541486 37.0147266,4.13844825 C42.3015597,6.80566787 45.6984848,12.1503518 45.6984848,18.0847019 C45.6984848,24.5077801 41.7300705,30.1234826 35.9411255,32.5255561 L35.9411255,51.7788285 C35.9411255,53.9435949 34.1502645,55.6984848 31.9411255,55.6984848 L25.9411255,55.6984848 C23.7319865,55.6984848 21.9411255,53.9435949 21.9411255,51.7788285 L21.9411255,31.8012186 C16.9526814,29.0911299 13.6984848,23.8948569 13.6984848,18.0847019 C13.6984848,12.7051991 16.4889923,7.78682055 21.0093016,4.91793182 C23.6706612,3.22885617 27.1837662,5.10072155 27.1837662,8.20783249 L27.1837662,17.4410412 Z" id="path-3"></path>
    </defs>
    <g id="Page-1" stroke="none" stroke-width="1" fill="none" fill-rule="evenodd">
        <g id="Sugar---Free-SVG-Icons" transform="translate(-593.000000, -644.000000)">
            <g id="Icons" transform="translate(48.000000, 197.000000)">
                <g id="2X" transform="translate(0.000000, 335.000000)">
                    <g id="Icons" transform="translate(0.000000, 43.000000)">
                        <g id="wrench" transform="translate(544.000000, 68.000000)">
                            <g transform="translate(-6.000000, -4.000000)">
                                <g id="Color/Fill" transform="translate(12.000000, 14.000000)">
                                    <mask id="mask-2" fill="white">
                                        <use xlink:href="#path-1"></use>
                                    </mask>
                                    <use id="Mask" fill="#D8D8D8" xlink:href="#path-1"></use>
                                    <g mask="url(#mask-2)" fill="#9BAEC8">
                                        <g transform="translate(-6.000000, -10.000000)">
                                            <rect x="0" y="0" width="48" height="48"></rect>
                                        </g>
                                    </g>
                                </g>
                                <g id="Color/Stroke">
                                    <mask id="mask-4" fill="white">
                                        <use xlink:href="#path-3"></use>
                                    </mask>
                                    <use id="Mask" fill="#000000" fill-rule="nonzero" transform="translate(29.698485, 29.698485) rotate(45.000000) translate(-29.698485, -29.698485) " xlink:href="#path-3"></use>
                                    <g mask="url(#mask-4)" fill="#191B22">
                                        <g transform="translate(6.000000, 4.000000)">
                                            <rect x="0" y="0" width="48" height="48"></rect>
                                        </g>
                                    </g>
                                </g>
                            </g>
                        </g>
                    </g>
                </g>
            </g>
        </g>
    </g>
</svg>