<?xml version="1.0" encoding="UTF-8"?>
<svg width="24px" height="24px" viewBox="0 0 24 24" version="1.1" xmlns="http://www.w3.org/2000/svg" xmlns:xlink="http://www.w3.org/1999/xlink">
    <!-- Generator: Sketch 58 (84663) - https://sketch.com -->
    <title>angle/angle-bottom</title>
    <desc>Created with Sketch.</desc>
    <defs>
        <path d="M6.45591671,5.04196137 C6.85383224,5.42495181 6.86593141,6.05800118 6.48294097,6.45591671 C6.09995053,6.85383224 5.46690117,6.86593141 5.06898564,6.48294097 L0.597305951,2.1789859 C0.199390421,1.79599546 0.187291244,1.16294609 0.570281683,0.76503056 C0.953272122,0.367115031 1.58632149,0.355015854 1.98423702,0.738006292 L6.45591671,5.04196137 Z" id="path-1"></path>
        <path d="M4.58578644,6 L0.292893219,1.70710678 C-0.0976310729,1.31658249 -0.0976310729,0.683417511 0.292893219,0.292893219 C0.683417511,-0.0976310729 1.31658249,-0.0976310729 1.70710678,0.292893219 L6.70710678,5.29289322 C7.09763107,5.68341751 7.09763107,6.31658249 6.70710678,6.70710678 L1.70710678,11.7071068 C1.31658249,12.0976311 0.683417511,12.0976311 0.292893219,11.7071068 C-0.0976310729,11.3165825 -0.0976310729,10.6834175 0.292893219,10.2928932 L4.58578644,6 Z" id="path-3"></path>
    </defs>
    <g id="angle/angle-bottom" stroke="none" stroke-width="1" fill="none" fill-rule="evenodd">
        <g id="arrow/bottom" transform="translate(12.000000, 12.000000) scale(-1, 1) rotate(90.000000) translate(-12.000000, -12.000000) translate(8.000000, 6.000000)">
            <g id="Color/Fill" transform="translate(0.000000, 1.000000)">
                <mask id="mask-2" fill="white">
                    <use xlink:href="#path-1"></use>
                </mask>
                <use id="Mask" fill="#D8D8D8" fill-rule="nonzero" xlink:href="#path-1"></use>
                <g mask="url(#mask-2)" fill="#FFA0A0">
                    <g transform="translate(-7.000000, -2.000000)">
                        <rect x="0" y="0" width="24" height="24"></rect>
                    </g>
                </g>
            </g>
            <g id="Color/Stroke" transform="translate(1.000000, 0.000000)">
                <mask id="mask-4" fill="white">
                    <use xlink:href="#path-3"></use>
                </mask>
                <use id="Mask" fill="#000000" fill-rule="nonzero" xlink:href="#path-3"></use>
                <g mask="url(#mask-4)" fill="#7600FF">
                    <g transform="translate(-9.000000, -6.000000)">
                        <rect x="0" y="0" width="24" height="24"></rect>
                    </g>
                </g>
            </g>
        </g>
    </g>
</svg>