<?xml version="1.0" encoding="UTF-8"?>
<svg width="553px" height="553px" viewBox="0 0 553 553" version="1.1" xmlns="http://www.w3.org/2000/svg" xmlns:xlink="http://www.w3.org/1999/xlink">
    <!-- Generator: Sketch 58 (84663) - https://sketch.com -->
    <title>Shape</title>
    <desc>Created with Sketch.</desc>
    <g id="Page-1" stroke="none" stroke-width="1" fill="none" fill-rule="evenodd">
        <g id="Artboard" transform="translate(-1.000000, 0.000000)" fill="#000000" fill-rule="nonzero">
            <g id="noun_Speech-Bubble_104022" transform="translate(1.000000, 0.000000)">
                <path d="M508.76,426.424444 C537.024444,382.798889 553,331.8 553,276.5 C553,123.503333 429.496667,0 276.5,0 C123.503333,0 0,123.503333 0,276.5 C0,429.496667 123.503333,553 276.5,553 C333.643333,553 386.485556,535.795556 430.725556,506.302222 L553,553 L508.76,426.424444 L508.76,426.424444 Z M277.370935,32.5294118 C387.473413,32.5294118 481.583353,105.692642 512.338235,205.907823 L429.300053,205.907823 C425.609467,200.374469 421.303784,195.455933 416.383003,191.767031 C405.926343,183.159592 392.394194,178.241055 378.246949,178.241055 L367.790289,178.241055 L287.827595,178.241055 C265.068982,178.241055 244.77076,191.152213 234.3141,210.211542 C225.702732,207.752274 217.091365,206.52264 207.864901,206.52264 C198.023338,206.52264 188.181776,208.367091 179.570409,211.441176 C176.494921,204.063372 172.189237,197.915201 167.268456,192.996665 C159.887284,185.004043 150.045722,180.085506 139.589062,178.855872 C138.358867,178.855872 136.513574,178.855872 135.283379,178.855872 L60.2414659,178.855872 C57.7810753,178.855872 55.3206847,179.470689 52.8602941,179.470689 C90.9963481,92.7814837 177.110019,32.5294118 277.370935,32.5294118 Z M406.617647,206.893226 L338.79888,325.294118 C336.96594,325.294118 335.133001,325.294118 332.689081,325.294118 C332.078101,325.294118 331.467121,325.294118 330.856141,325.294118 C330.245162,325.294118 329.634182,325.294118 328.412222,325.294118 C314.359685,324.677446 300.918127,320.360747 288.698529,313.577363 C288.698529,313.577363 288.698529,313.577363 288.698529,313.577363 L357.128276,195.176471 L367.514934,195.176471 L377.901593,195.176471 C387.677271,195.176471 396.841969,198.259827 404.173728,205.043212 C405.395687,205.659883 406.006667,206.276554 406.617647,206.893226 Z M158.580882,207.568627 L90.2069595,325.294118 C88.3422162,325.294118 86.4774728,324.67451 84.6127295,324.054902 C77.1537561,322.196078 70.3163638,318.478431 62.8573904,313.521569 C62.2358093,312.901961 61.6142282,312.282353 60.9926471,312.282353 L129.36657,195.176471 L135.582381,195.176471 C136.203962,195.176471 136.825543,195.176471 138.068706,195.176471 C145.527679,195.796078 151.121909,200.133333 154.851396,203.85098 C156.094558,204.470588 157.33772,205.709804 158.580882,207.568627 Z M457.945463,482.386952 L457.945463,482.386952 L424.843926,469.487656 L424.843926,469.487656 C424.230934,469.487656 424.230934,470.101909 423.617943,470.101909 C423.617943,470.101909 423.617943,470.101909 423.617943,470.101909 C418.714011,473.787422 413.81008,476.858683 408.906148,480.544196 C408.906148,480.544196 408.293157,481.158448 408.293157,481.158448 C403.389226,484.229709 397.872303,487.30097 392.968371,490.372231 L392.968371,490.372231 C358.02786,509.414049 318.183417,520.470588 275.887009,520.470588 C151.449749,520.470588 48.4671889,427.104255 32.5294118,306.710826 C38.0463346,314.081852 44.1762489,320.224374 50.9191546,325.138392 C59.5010346,331.280914 68.695906,336.194931 78.5037688,338.65194 C84.0206917,339.880444 90.150606,341.108949 96.2805202,341.108949 C143.48086,341.108949 182.09932,295.040034 183.325303,237.914581 C190.6812,234.84332 198.037097,233.000563 206.005986,233.000563 C212.748892,233.000563 218.878806,234.229068 225.00872,236.071824 C225.621711,274.769712 246.46342,307.93933 277.112991,325.752644 C291.211794,334.352175 307.762563,339.266192 325.539314,339.880444 C327.378289,339.880444 328.604271,339.880444 330.443246,339.880444 C388.677431,339.880444 435.877771,292.583026 435.877771,234.229068 L435.877771,234.229068 C435.877771,234.229068 435.877771,234.229068 435.877771,233.614815 C435.877771,233.000563 435.877771,232.386311 435.877771,231.772059 L516.79264,231.772059 C519.244605,245.285607 520.470588,259.413407 520.470588,273.541208 C520.470588,313.4676 510.662725,351.551236 493.498965,384.720854 L493.498965,384.720854 C487.369051,396.391646 480.626145,408.062437 472.657257,418.504725 L472.657257,418.504725 L484.304094,452.902847 L484.304094,452.902847 L499.62888,497.743257 L457.945463,482.386952 Z M109.786765,373.098027 C109.786765,429.308176 156.214004,475.742647 213.78378,475.742647 C271.353556,475.742647 317.161765,429.308176 317.161765,373.098027 L317.161765,357.823529 L109.786765,357.823529 L109.786765,373.098027 Z M280.566176,390.352941 C273.759751,422.794908 244.058983,447.279412 209.408088,447.279412 C174.757193,447.279412 145.675192,422.794908 138.25,390.352941 L280.566176,390.352941 Z" id="Shape"></path>
            </g>
        </g>
    </g>
</svg>