<?xml version="1.0" encoding="UTF-8"?>
<svg width="90px" height="90px" viewBox="0 0 90 90" version="1.1" xmlns="http://www.w3.org/2000/svg" xmlns:xlink="http://www.w3.org/1999/xlink">
    <!-- Generator: Sketch 58 (84663) - https://sketch.com -->
    <title>Shape</title>
    <desc>Created with Sketch.</desc>
    <g id="Page-1" stroke="none" stroke-width="1" fill="none" fill-rule="evenodd">
        <g id="noun_Speech-Bubble_104032" transform="translate(-5.000000, 0.000000)" fill="#000000" fill-rule="nonzero">
            <path d="M54.5,34.2 C48.6,34.2 43.7,39 43.7,45 C43.7,51 48.5,55.8 54.5,55.8 C60.5,55.8 65.2,50.9 65.2,45 C65.2,39.1 60.4,34.2 54.5,34.2 Z M25.1,34.2 C19.2,34.2 14.3,39 14.3,45 C14.3,51 19.1,55.8 25.1,55.8 C31.1,55.8 35.9,50.9 35.9,45 C35.9,39.1 31.1,34.2 25.1,34.2 Z M32.9,62.3 L45.4,62.3 L39.1,56 L32.9,62.3 Z M87.8,69.4 C88,69 88.3,68.7 88.5,68.3 C88.8,67.9 89,67.5 89.2,67 C89.4,66.7 89.5,66.5 89.6,66.2 C89.9,65.7 90.2,65.1 90.4,64.6 C90.6,64.3 90.7,64 90.9,63.6 C91.1,63.3 91.2,62.9 91.4,62.6 C91.6,62 91.9,61.5 92.1,60.9 C92.3,60.5 92.4,60.1 92.5,59.7 C92.5,59.6 92.6,59.5 92.6,59.4 C92.7,59 92.9,58.6 93,58.2 C93,58 93.1,57.9 93.1,57.7 C93.2,57.3 93.3,56.9 93.4,56.5 C93.4,56.3 93.5,56.1 93.5,56 C93.6,55.4 93.8,54.8 93.9,54.2 C94,53.9 94,53.6 94.1,53.3 C94.1,53 94.2,52.8 94.2,52.5 C94.3,52.2 94.3,51.8 94.4,51.5 C94.4,51.2 94.5,51 94.5,50.7 C94.5,50.3 94.6,50 94.6,49.6 C94.6,49.4 94.6,49.1 94.7,48.9 C94.7,48.5 94.8,48.1 94.8,47.7 C94.8,47.5 94.8,47.3 94.8,47.1 C94.8,46.5 94.8,45.9 94.8,45.2 C94.8,44.4 94.8,43.6 94.7,42.8 C94.7,42.6 94.7,42.5 94.7,42.3 C94.7,41.7 94.6,41.1 94.6,40.4 C94.6,40.3 94.6,40.1 94.5,40 C94.4,39.4 94.4,38.7 94.3,38.1 C94.3,38 94.3,37.9 94.2,37.8 C94.1,37.1 94,36.5 93.8,35.8 C93.8,35.7 93.8,35.7 93.8,35.6 C93.7,34.9 93.5,34.2 93.3,33.5 C93.3,33.5 93.3,33.5 93.3,33.4 C92.7,31.2 92,29.1 91.1,27 C91.1,27 91.1,27 91.1,27 C84.3,11.1 68.5,0 50,0 C41,0 32.6,2.6 25.6,7.2 C25.6,7.2 25.5,7.3 25.5,7.3 C25.1,7.6 24.6,7.9 24.2,8.2 C23.7,8.5 23.3,8.9 22.8,9.2 C22.8,9.2 22.8,9.2 22.8,9.2 C22.2,9.6 21.7,10.1 21.2,10.5 C21.2,10.5 21.1,10.5 21.1,10.6 C20.6,11 20.1,11.5 19.6,11.9 C19.6,11.9 19.5,12 19.5,12 C19,12.4 18.5,12.9 18.1,13.4 C18,13.5 18,13.5 17.9,13.6 C17.5,14.1 17,14.5 16.6,15 C16.5,15.1 16.5,15.1 16.4,15.2 C16,15.7 15.6,16.1 15.2,16.6 C15.1,16.7 15.1,16.8 15,16.9 C14.6,17.4 14.3,17.8 13.9,18.3 C13.8,18.4 13.7,18.5 13.6,18.7 C13.3,19.2 12.9,19.6 12.6,20.1 C12.5,20.2 12.4,20.4 12.3,20.5 C12,21 11.7,21.4 11.4,21.9 C11.3,22.1 11.2,22.3 11.1,22.4 C10.8,22.8 10.6,23.3 10.3,23.7 C10.2,23.9 10.1,24.1 10,24.3 C9.8,24.7 9.5,25.2 9.3,25.6 C9.2,25.8 9.1,26.1 9,26.3 C8.8,26.7 8.6,27.2 8.4,27.6 C8.3,27.9 8.2,28.1 8.1,28.4 C7.9,28.8 7.8,29.2 7.6,29.7 C7.5,30 7.4,30.3 7.3,30.6 C7.2,31 7,31.4 6.9,31.8 C6.8,32.1 6.7,32.4 6.6,32.8 C6.5,33.2 6.4,33.6 6.3,34 C6.2,34.3 6.1,34.7 6.1,35.1 C6.1,35.2 6,35.6 5.9,36 C5.8,36.4 5.8,36.8 5.7,37.2 C5.6,37.6 5.6,37.9 5.5,38.3 C5.4,38.7 5.4,39.1 5.3,39.5 C5.3,39.8 5.2,40.2 5.2,40.5 C5.2,41 5.1,41.5 5.1,42 C5.1,42.3 5.1,42.5 5,42.8 C5,43.5 5,44.2 5,45 C5,69.9 25.1,90 50,90 C50.6,90 51.1,90 51.7,90 C52,90 52.3,90 52.7,89.9 C52.9,89.9 53.1,89.9 53.4,89.9 C53.8,89.9 54.3,89.8 54.7,89.8 C54.8,89.8 54.9,89.8 54.9,89.8 C55.7,89.7 56.5,89.6 57.3,89.5 C57.6,89.4 57.9,89.4 58.2,89.3 C58.7,89.2 59.1,89.1 59.6,89 C59.9,88.9 60.3,88.9 60.6,88.8 C61.2,88.6 61.9,88.5 62.5,88.3 C62.5,88.3 62.5,88.3 62.5,88.3 C63.1,88.1 63.8,87.9 64.4,87.7 C64.6,87.6 64.8,87.6 64.9,87.5 C65.5,87.3 66.2,87 66.8,86.8 C67,86.7 67.1,86.7 67.3,86.6 C67.9,86.3 68.6,86 69.2,85.7 C69.3,85.6 69.4,85.6 69.5,85.5 C70.2,85.2 70.8,84.8 71.5,84.5 C71.5,84.5 71.6,84.4 71.6,84.4 C72.7,83.8 73.8,83.1 74.9,82.4 L95,90 L87.8,69.4 L87.8,69.4 Z M87.4,59.2 C87.4,59.3 87.3,59.4 87.3,59.6 C87.3,59.6 87.3,59.6 87.3,59.6 C86.8,59.6 86.3,59.5 85.8,59.5 C72.6,59.5 62,70.1 62,83.1 C61.8,83.2 61.5,83.2 61.3,83.3 C60.8,83.5 60.3,83.6 59.8,83.7 C59.5,83.8 59.2,83.8 58.9,83.9 C58.4,84 57.9,84.1 57.3,84.2 C57,84.3 56.6,84.3 56.3,84.4 C55.8,84.5 55.3,84.6 54.7,84.6 C54.4,84.6 54,84.7 53.7,84.7 C53.2,84.7 52.7,84.8 52.1,84.8 C52,84.8 51.8,84.8 51.7,84.8 L51.7,69.2 L46.7,69.2 L46.7,84.9 C46.7,84.9 46.6,84.9 46.6,84.9 C45.9,84.8 45.1,84.8 44.4,84.7 C44.3,84.7 44.2,84.7 44,84.7 C43.2,84.6 42.4,84.4 41.6,84.3 C41.6,84.3 41.6,84.3 41.6,84.3 L41.6,69.2 L36.6,69.2 L36.6,82.7 C36.6,82.7 36.6,82.7 36.6,82.7 C35.7,82.4 34.9,82 34,81.7 C33.6,81.5 33.2,81.3 32.7,81.1 C32.3,80.9 31.9,80.7 31.5,80.5 L31.5,69.2 L26.5,69.2 L26.5,77.4 C26.5,77.4 26.5,77.4 26.5,77.4 C24.6,76 22.9,74.5 21.2,72.9 C21.2,72.9 21.2,72.9 21.2,72.9 C20.7,72.4 20.2,71.8 19.7,71.3 C19.7,71.2 19.6,71.2 19.6,71.1 C19.1,70.6 18.7,70 18.3,69.5 C18.3,69.5 18.2,69.4 18.2,69.4 C16.8,67.6 15.6,65.7 14.5,63.7 C14.4,63.6 14.4,63.4 14.3,63.3 C14,62.8 13.8,62.2 13.5,61.7 C13.4,61.5 13.3,61.4 13.3,61.2 C13.1,60.7 12.8,60.1 12.6,59.6 C12.5,59.4 12.5,59.3 12.4,59.1 C11.9,57.7 11.4,56.3 11.1,54.8 C11.1,54.6 11,54.4 11,54.3 C10.9,53.8 10.8,53.2 10.6,52.7 C10.6,52.5 10.5,52.2 10.5,52 C10.4,51.5 10.3,51 10.3,50.5 C10.3,50.2 10.2,50 10.2,49.7 C10.1,49.2 10.1,48.7 10.1,48.1 C10.1,47.9 10.1,47.6 10,47.4 C10,46.6 9.9,45.9 9.9,45.1 C9.9,44.4 9.9,43.8 10,43.1 C10,42.9 10,42.7 10,42.4 C10,42 10.1,41.5 10.1,41.1 C10.1,40.8 10.2,40.6 10.2,40.3 C10.2,39.9 10.3,39.5 10.3,39.1 C10.3,38.8 10.4,38.6 10.4,38.3 C10.5,37.9 10.5,37.6 10.6,37.2 C10.7,36.9 10.7,36.6 10.8,36.4 C10.9,36 11,35.7 11,35.4 C11.1,35.1 11.1,34.8 11.2,34.6 C11.3,34.3 11.4,33.9 11.5,33.6 C11.6,33.3 11.7,33 11.8,32.8 C11.9,32.5 12,32.1 12.1,31.8 C12.2,31.5 12.3,31.3 12.4,31 C12.5,30.7 12.6,30.4 12.8,30 C12.9,29.7 13,29.5 13.1,29.2 C13.2,28.9 13.4,28.6 13.5,28.3 C13.6,28 13.7,27.8 13.9,27.5 C14.1,27.2 14.2,26.9 14.4,26.6 C14.5,26.3 14.7,26.1 14.8,25.8 C15,25.5 15.1,25.2 15.3,24.9 C15.4,24.7 15.6,24.4 15.7,24.2 C15.9,23.9 16.1,23.6 16.3,23.3 C16.5,23.1 16.6,22.8 16.8,22.6 C17,22.3 17.2,22 17.4,21.7 C17.6,21.5 17.7,21.3 17.9,21 C18.1,20.7 18.4,20.4 18.6,20.1 C18.8,19.9 18.9,19.7 19.1,19.5 C19.4,19.2 19.7,18.8 19.9,18.5 C20,18.3 20.2,18.2 20.3,18 C20.7,17.6 21.1,17.1 21.5,16.7 C21.7,16.5 21.9,16.3 22.1,16.2 C22.4,15.9 22.6,15.7 22.9,15.5 C23.1,15.3 23.3,15.1 23.5,14.9 C23.8,14.7 24,14.5 24.3,14.2 C24.5,14 24.8,13.8 25,13.6 C25.3,13.4 25.5,13.2 25.8,13 C26,12.8 26.3,12.6 26.5,12.5 C26.8,12.3 27,12.1 27.3,11.9 C27.6,11.7 27.8,11.6 28.1,11.4 C28.4,11.2 28.6,11.1 28.9,10.9 C29.2,10.7 29.4,10.6 29.7,10.4 C30,10.2 30.2,10.1 30.5,9.9 C30.8,9.7 31.1,9.6 31.3,9.5 C31.6,9.4 31.9,9.2 32.1,9.1 C32.4,9 32.7,8.8 33,8.7 C33.3,8.6 33.6,8.4 33.8,8.3 C34.1,8.2 34.4,8 34.7,7.9 C35,7.8 35.3,7.7 35.6,7.6 C35.9,7.5 36.2,7.4 36.5,7.3 C36.8,7.2 37.1,7.1 37.4,7 C37.7,6.9 38,6.8 38.3,6.7 C38.6,6.6 38.9,6.5 39.2,6.4 C39.5,6.3 39.8,6.2 40.1,6.1 C40.4,6 40.7,6 41,5.9 C41.3,5.8 41.6,5.8 42,5.7 C42.3,5.6 42.6,5.6 42.9,5.5 C43.2,5.4 43.5,5.4 43.9,5.3 C44.2,5.3 44.6,5.2 44.9,5.2 C45.2,5.2 45.5,5.1 45.9,5.1 C47.2,5 48.6,4.9 49.9,4.9 C67,4.9 81.6,15.7 87.3,30.8 C87.5,31.3 87.6,31.8 87.8,32.2 C87.8,32.3 87.9,32.4 87.9,32.5 C88,32.9 88.2,33.4 88.3,33.8 C88.3,34 88.4,34.1 88.4,34.3 C88.5,34.7 88.6,35.1 88.7,35.5 C88.8,35.7 88.8,35.9 88.8,36.1 C88.9,36.5 89,36.8 89,37.2 C89.1,37.5 89.1,37.7 89.1,38 C89.2,38.3 89.2,38.7 89.3,39 C89.3,39.3 89.4,39.6 89.4,39.9 C89.4,40.2 89.5,40.5 89.5,40.8 C89.5,41.2 89.6,41.6 89.6,42 C89.6,42.2 89.6,42.5 89.7,42.7 C89.7,43.3 89.7,44 89.7,44.7 C89.7,45.4 89.7,46.2 89.6,46.9 C89.6,47.1 89.6,47.4 89.5,47.6 C89.5,48.1 89.4,48.6 89.4,49.1 C89.4,49.4 89.3,49.6 89.3,49.9 C89.2,50.4 89.2,50.8 89.1,51.3 C89.1,51.6 89,51.8 89,52 C88.9,52.7 88.7,53.3 88.6,54 C88.5,54.2 88.5,54.4 88.4,54.6 C88.3,55.1 88.2,55.5 88,56 C87.9,56.3 87.8,56.6 87.7,56.8 C87.6,57.2 87.4,57.6 87.3,58 C87.6,58.7 87.5,59 87.4,59.2 Z" id="Shape"></path>
        </g>
    </g>
</svg>