<?xml version="1.0" encoding="UTF-8"?>
<svg width="90px" height="90px" viewBox="0 0 90 90" version="1.1" xmlns="http://www.w3.org/2000/svg" xmlns:xlink="http://www.w3.org/1999/xlink">
    <!-- Generator: Sketch 58 (84663) - https://sketch.com -->
    <title>Shape</title>
    <desc>Created with Sketch.</desc>
    <g id="Page-1" stroke="none" stroke-width="1" fill="none" fill-rule="evenodd">
        <g id="Artboard" transform="translate(-238.000000, -279.000000)" fill="#000000" fill-rule="nonzero">
            <g id="noun_Speech-Bubble_104022" transform="translate(1.000000, 0.000000)">
                <g id="noun_Speech-Bubble_104030" transform="translate(232.000000, 279.000000)">
                    <g id="noun_Speech-Bubble_104024">
                        <path d="M87.8,69.4 C92.4,62.3 95,54 95,45 C95,20.1 74.9,0 50,0 C25.1,0 5,20.1 5,45 C5,69.9 25.1,90 50,90 C59.3,90 67.9,87.2 75.1,82.4 L95,90 L87.8,69.4 L87.8,69.4 Z M79.7,78.8 L79.7,78.8 L74.3,76.7 L74.3,76.7 C74.2,76.7 74.2,76.8 74.1,76.8 C74.1,76.8 74.1,76.8 74.1,76.8 C73.3,77.4 72.5,77.9 71.7,78.5 C71.7,78.5 71.6,78.6 71.6,78.6 C70.8,79.1 69.9,79.6 69.1,80.1 L69.1,80.1 C63.4,83.2 56.9,85 50,85 C27.9,85 10,67.1 10,45 C10,22.9 27.9,5 50,5 C72.1,5 90,22.9 90,45 C90,51.5 88.4,57.7 85.6,63.1 L85.6,63.1 C84.6,65 83.5,66.9 82.2,68.6 L82.2,68.6 L84.1,74.2 L84.1,74.2 L86.6,81.5 L79.7,78.8 Z M37.5,62 C34.1,62 31.1,60.3 29.4,57.6 L23.8,57.6 C26,63.1 31.3,67 37.5,67 C43.7,67 49.1,63.1 51.2,57.6 L45.6,57.6 C43.9,60.3 40.9,62 37.5,62 Z M52.5,36.9 C49.7,36.9 47.5,39.1 47.5,41.9 C47.5,44.7 49.7,46.9 52.5,46.9 C55.3,46.9 57.5,44.7 57.5,41.9 C57.5,39.1 55.3,36.9 52.5,36.9 Z M28.5,41.9 C28.5,39.1 26.3,36.9 23.5,36.9 C20.7,36.9 18.5,39.1 18.5,41.9 C18.5,44.7 20.7,46.9 23.5,46.9 C26.3,46.9 28.5,44.6 28.5,41.9 Z" id="Shape"></path>
                    </g>
                </g>
            </g>
        </g>
    </g>
</svg>