<?xml version="1.0" encoding="UTF-8"?>
<svg width="89px" height="90px" viewBox="0 0 89 90" version="1.1" xmlns="http://www.w3.org/2000/svg" xmlns:xlink="http://www.w3.org/1999/xlink">
    <!-- Generator: Sketch 58 (84663) - https://sketch.com -->
    <title>noun_Speech Bubble_104023</title>
    <desc>Created with Sketch.</desc>
    <g id="Page-1" stroke="none" stroke-width="1" fill="none" fill-rule="evenodd">
        <g id="Artboard" fill="#000000" fill-rule="nonzero">
            <g id="noun_Speech-Bubble_104023" transform="translate(-1.000000, 0.000000)">
                <path d="M26.5,44.5 L27.9,43.1 C30.1,40.9 30.1,37.2 27.9,35 C25.7,32.8 22,32.8 19.8,35 L18.4,36.4 L17,35 C14.8,32.8 11.1,32.8 8.9,35 C6.7,37.2 6.7,40.9 8.9,43.1 L10.3,44.5 L18.4,52.6 L26.5,44.5 Z M52.2,34.9 L50.8,36.3 L49.4,34.9 C47.2,32.7 43.5,32.7 41.3,34.9 C39.1,37.1 39.1,40.8 41.3,43 L42.7,44.4 L50.8,52.5 L58.9,44.4 L60.3,43 C62.5,40.8 62.5,37.1 60.3,34.9 C58,32.7 54.4,32.7 52.2,34.9 Z M82.8,69.4 C87.4,62.3 90,54 90,45 C90,20.1 69.9,0 45,0 C20.1,0 0,20.1 0,45 C0,69.9 20.1,90 45,90 C54.3,90 62.9,87.2 70.1,82.4 L90,90 L82.8,69.4 L82.8,69.4 Z M74.7,78.8 L74.7,78.8 L69.3,76.7 L69.3,76.7 C69.2,76.7 69.2,76.8 69.1,76.8 C69.1,76.8 69.1,76.8 69.1,76.8 C68.3,77.4 67.5,77.9 66.7,78.5 C66.7,78.5 66.6,78.6 66.6,78.6 C65.8,79.1 64.9,79.6 64.1,80.1 L64.1,80.1 C58.4,83.2 51.9,85 45,85 C22.9,85 5,67.1 5,45 C5,22.9 22.9,5 45,5 C67.1,5 85,22.9 85,45 C85,51.5 83.4,57.7 80.6,63.1 L80.6,63.1 C79.6,65 78.5,66.9 77.2,68.6 L77.2,68.6 L79.1,74.2 L79.1,74.2 L81.6,81.5 L74.7,78.8 Z M34.5,74.5 C43.5,74.5 50.8,67.2 50.8,58.2 L18.2,58.2 C18.2,67.2 25.5,74.5 34.5,74.5 Z" id="Shape"></path>
            </g>
        </g>
    </g>
</svg>