<?xml version="1.0" encoding="UTF-8"?>
<svg width="90px" height="90px" viewBox="0 0 90 90" version="1.1" xmlns="http://www.w3.org/2000/svg" xmlns:xlink="http://www.w3.org/1999/xlink">
    <!-- Generator: Sketch 58 (84663) - https://sketch.com -->
    <title>Shape</title>
    <desc>Created with Sketch.</desc>
    <g id="Page-1" stroke="none" stroke-width="1" fill="none" fill-rule="evenodd">
        <g id="Artboard" transform="translate(-195.000000, -34.000000)" fill="#000000" fill-rule="nonzero">
            <g id="noun_Speech-Bubble_104022" transform="translate(1.000000, 0.000000)">
                <g id="noun_Speech-Bubble_104030" transform="translate(189.000000, 34.000000)">
                    <g id="noun_Speech-Bubble_104024">
                        <g id="noun_Speech-Bubble_104036">
                            <path d="M21.2,37.4 L27.8,44 L21.2,50.6 L24.7,54.1 L34.8,44 L24.7,33.8 L21.2,37.4 Z M54.1,33.8 L44,43.9 L54.1,54 L57.6,50.5 L51,43.9 L57.6,37.3 L54.1,33.8 Z M87.8,69.4 C92.4,62.3 95,54 95,45 C95,20.1 74.9,0 50,0 C25.1,0 5,20.1 5,45 C5,69.9 25.1,90 50,90 C59.3,90 67.9,87.2 75.1,82.4 L95,90 L87.8,69.4 L87.8,69.4 Z M79.7,78.8 L79.7,78.8 L74.3,76.7 L74.3,76.7 C74.2,76.7 74.2,76.8 74.1,76.8 C74.1,76.8 74.1,76.8 74.1,76.8 C73.3,77.4 72.5,77.9 71.7,78.5 C71.7,78.5 71.6,78.6 71.6,78.6 C70.8,79.1 69.9,79.6 69.1,80.1 L69.1,80.1 C63.4,83.2 56.9,85 50,85 C27.9,85 10,67.1 10,45 C10,22.9 27.9,5 50,5 C72.1,5 90,22.9 90,45 C90,51.5 88.4,57.7 85.6,63.1 L85.6,63.1 C84.6,65 83.5,66.9 82.2,68.6 L82.2,68.6 L84.1,74.2 L84.1,74.2 L86.6,81.5 L79.7,78.8 Z M40.1,62 C37.3,62 35.1,64.2 35.1,67 C35.1,69.8 37.3,72 40.1,72 C42.9,72 45.1,69.8 45.1,67 C45.1,64.2 42.9,62 40.1,62 Z" id="Shape"></path>
                        </g>
                    </g>
                </g>
            </g>
        </g>
    </g>
</svg>