<?xml version="1.0" encoding="UTF-8"?>
<svg width="90px" height="90px" viewBox="0 0 90 90" version="1.1" xmlns="http://www.w3.org/2000/svg" xmlns:xlink="http://www.w3.org/1999/xlink">
    <!-- Generator: Sketch 58 (84663) - https://sketch.com -->
    <title>Shape</title>
    <desc>Created with Sketch.</desc>
    <g id="Page-1" stroke="none" stroke-width="1" fill="none" fill-rule="evenodd">
        <g id="Artboard" transform="translate(-375.000000, -292.000000)" fill="#000000" fill-rule="nonzero">
            <g id="noun_Speech-Bubble_104022" transform="translate(1.000000, 0.000000)">
                <g id="noun_Speech-Bubble_104030" transform="translate(369.000000, 292.000000)">
                    <path d="M87.8,69.4 C92.4,62.3 95,54 95,45 C95,20.1 74.9,0 50,0 C25.1,0 5,20.1 5,45 C5,69.9 25.1,90 50,90 C59.3,90 67.9,87.2 75.1,82.4 L95,90 L87.8,69.4 L87.8,69.4 Z M79.7,78.8 L79.7,78.8 L74.3,76.7 L74.3,76.7 C74.2,76.7 74.2,76.8 74.1,76.8 C74.1,76.8 74.1,76.8 74.1,76.8 C73.3,77.4 72.5,77.9 71.7,78.5 C71.7,78.5 71.6,78.6 71.6,78.6 C70.8,79.1 69.9,79.6 69.1,80.1 L69.1,80.1 C63.4,83.2 56.9,85 50,85 C27.9,85 10,67.1 10,45 C10,22.9 27.9,5 50,5 C72.1,5 90,22.9 90,45 C90,51.5 88.4,57.7 85.6,63.1 L85.6,63.1 C84.6,65 83.5,66.9 82.2,68.6 L82.2,68.6 L84.1,74.2 L84.1,74.2 L86.6,81.5 L79.7,78.8 Z M40.1,62 C37.3,62 35.1,64.2 35.1,67 C35.1,69.8 37.3,72 40.1,72 C42.9,72 45.1,69.8 45.1,67 C45.1,64.2 42.9,62 40.1,62 Z M25.1,31.7 C17.8,31.7 11.8,37.7 11.8,45 C11.8,52.3 17.8,58.3 25.1,58.3 C32.4,58.3 38.4,52.3 38.4,45 C38.4,37.7 32.4,31.7 25.1,31.7 Z M15.6,43.7 C15.6,42.6 16.5,41.7 17.6,41.7 C18.7,41.7 19.6,42.6 19.6,43.7 C19.6,44.8 18.7,45.7 17.6,45.7 C16.5,45.7 15.6,44.8 15.6,43.7 Z M21.6,54 C19.9,54 18.5,52.6 18.5,50.9 C18.5,49.2 19.9,47.8 21.6,47.8 C23.3,47.8 24.7,49.2 24.7,50.9 C24.8,52.6 23.4,54 21.6,54 Z M28.5,47.8 C25.7,47.8 23.5,45.6 23.5,42.8 C23.5,40 25.7,37.8 28.5,37.8 C31.3,37.8 33.5,40 33.5,42.8 C33.5,45.6 31.2,47.8 28.5,47.8 Z M54.5,31.7 C47.2,31.7 41.2,37.7 41.2,45 C41.2,52.3 47.2,58.3 54.5,58.3 C61.8,58.3 67.8,52.3 67.8,45 C67.8,37.7 61.8,31.7 54.5,31.7 Z M45.3,43.7 C45.3,42.6 46.2,41.7 47.3,41.7 C48.4,41.7 49.3,42.6 49.3,43.7 C49.3,44.8 48.4,45.7 47.3,45.7 C46.2,45.7 45.3,44.8 45.3,43.7 Z M51.3,54 C49.6,54 48.2,52.6 48.2,50.9 C48.2,49.2 49.6,47.8 51.3,47.8 C53,47.8 54.4,49.2 54.4,50.9 C54.5,52.6 53.1,54 51.3,54 Z M58.2,47.8 C55.4,47.8 53.2,45.6 53.2,42.8 C53.2,40 55.4,37.8 58.2,37.8 C61,37.8 63.2,40 63.2,42.8 C63.2,45.6 60.9,47.8 58.2,47.8 Z" id="Shape"></path>
                </g>
            </g>
        </g>
    </g>
</svg>