<?xml version="1.0" encoding="UTF-8"?>
<svg width="437px" height="136px" viewBox="0 0 437 136" version="1.1" xmlns="http://www.w3.org/2000/svg" xmlns:xlink="http://www.w3.org/1999/xlink">
    <!-- Generator: Sketch 58 (84663) - https://sketch.com -->
    <title>Artboard</title>
    <desc>Created with Sketch.</desc>
    <g id="Artboard" stroke="none" stroke-width="1" fill="none" fill-rule="evenodd">
        <g id="noun_Speech-Bubble_104022" fill="#000000" fill-rule="nonzero">
            <path d="M125.12,104.871111 C132.071111,94.1422222 136,81.6 136,68 C136,30.3733333 105.626667,0 68,0 C30.3733333,0 0,30.3733333 0,68 C0,105.626667 30.3733333,136 68,136 C82.0533333,136 95.0488889,131.768889 105.928889,124.515556 L136,136 L125.12,104.871111 L125.12,104.871111 Z M68.2141901,8 C95.291834,8 118.436412,25.9931271 126,50.6391753 L105.578313,50.6391753 C104.670683,49.2783505 103.61178,48.0687285 102.401606,47.161512 C99.8299866,45.0446735 96.502008,43.8350515 93.0227577,43.8350515 L90.4511379,43.8350515 L70.7858099,43.8350515 C65.188755,43.8350515 60.1967871,47.0103093 57.6251673,51.6975945 C55.5073628,51.0927835 53.3895582,50.790378 51.1204819,50.790378 C48.7001339,50.790378 46.2797858,51.2439863 44.1619813,52 C43.4056225,50.185567 42.3467202,48.6735395 41.1365462,47.4639175 C39.3212851,45.4982818 36.9009371,44.2886598 34.3293173,43.9862543 C34.0267738,43.9862543 33.5729585,43.9862543 33.270415,43.9862543 L14.815261,43.9862543 C14.210174,43.9862543 13.605087,44.137457 13,44.137457 C22.3788487,22.8178694 43.5568942,8 68.2141901,8 Z M100,50.8815166 L83.3212435,80 C82.8704663,80 82.4196891,80 81.8186528,80 C81.6683938,80 81.5181347,80 81.3678756,80 C81.2176166,80 81.0673575,80 80.7668394,80 C77.3108808,79.8483412 74.0051813,78.7867299 71,77.1184834 C71,77.1184834 71,77.1184834 71,77.1184834 L87.8290155,48 L90.3834197,48 L92.9378238,48 C95.3419689,48 97.5958549,48.7582938 99.3989637,50.4265403 C99.6994819,50.5781991 99.8497409,50.7298578 100,50.8815166 Z M39,51.047619 L22.1847134,80 C21.7261146,80 21.2675159,79.847619 20.8089172,79.6952381 C18.9745223,79.2380952 17.2929936,78.3238095 15.4585987,77.1047619 C15.3057325,76.952381 15.1528662,76.8 15,76.8 L31.8152866,48 L33.343949,48 C33.4968153,48 33.6496815,48 33.955414,48 C35.7898089,48.152381 37.1656051,49.2190476 38.0828025,50.1333333 C38.388535,50.2857143 38.6942675,50.5904762 39,51.047619 Z M112.623116,118.634043 L112.623116,118.634043 L104.482412,115.461702 L104.482412,115.461702 C104.331658,115.461702 104.331658,115.612766 104.180905,115.612766 C104.180905,115.612766 104.180905,115.612766 104.180905,115.612766 C102.974874,116.519149 101.768844,117.274468 100.562814,118.180851 C100.562814,118.180851 100.41206,118.331915 100.41206,118.331915 C99.2060302,119.087234 97.8492462,119.842553 96.6432161,120.597872 L96.6432161,120.597872 C88.0502513,125.280851 78.2512563,128 67.8492462,128 C37.2462312,128 11.919598,105.038298 8,75.4297872 C9.35678392,77.2425532 10.8643216,78.7531915 12.5226131,79.9617021 C14.6331658,81.4723404 16.8944724,82.6808511 19.3065327,83.2851064 C20.6633166,83.587234 22.1708543,83.8893617 23.678392,83.8893617 C35.2864322,83.8893617 44.7839196,72.5595745 45.0854271,58.5106383 C46.8944724,57.7553191 48.7035176,57.3021277 50.6633166,57.3021277 C52.321608,57.3021277 53.8291457,57.6042553 55.3366834,58.0574468 C55.4874372,67.5744681 60.6130653,75.7319149 68.1507538,80.112766 C71.6180905,82.2276596 75.6884422,83.4361702 80.0603015,83.587234 C80.5125628,83.587234 80.8140704,83.587234 81.2663317,83.587234 C95.5879397,83.587234 107.19598,71.9553191 107.19598,57.6042553 L107.19598,57.6042553 C107.19598,57.6042553 107.19598,57.6042553 107.19598,57.4531915 C107.19598,57.3021277 107.19598,57.1510638 107.19598,57 L127.095477,57 C127.698492,60.3234043 128,63.7978723 128,67.2723404 C128,77.0914894 125.58794,86.4574468 121.366834,94.6148936 L121.366834,94.6148936 C119.859296,97.4851064 118.201005,100.355319 116.241206,102.923404 L116.241206,102.923404 L119.105528,111.382979 L119.105528,111.382979 L122.874372,122.410638 L112.623116,118.634043 Z M27,91.7564767 C27,105.580311 38.4179104,117 52.5761194,117 C66.7343284,117 78,105.580311 78,91.7564767 L78,88 L27,88 L27,91.7564767 Z M69,96 C67.326087,103.978495 60.0217391,110 51.5,110 C42.9782609,110 35.826087,103.978495 34,96 L69,96 Z" id="Shape"></path>
        </g>
        <text id="Pull-Request" font-family="Bungee-Regular, Bungee" font-size="60" font-weight="normal" line-spacing="56" fill="#000000">
            <tspan x="149" y="64">Pull</tspan>
            <tspan x="149" y="120">Request</tspan>
        </text>
    </g>
</svg>