<?xml version="1.0" encoding="UTF-8"?>
<svg width="90px" height="90px" viewBox="0 0 90 90" version="1.1" xmlns="http://www.w3.org/2000/svg" xmlns:xlink="http://www.w3.org/1999/xlink">
    <!-- Generator: Sketch 58 (84663) - https://sketch.com -->
    <title>noun_Speech Bubble_104021</title>
    <desc>Created with Sketch.</desc>
    <g id="Page-1" stroke="none" stroke-width="1" fill="none" fill-rule="evenodd">
        <g id="noun_Speech-Bubble_104021" fill="#000000" fill-rule="nonzero">
            <path d="M66.8,78.5 C66.8,78.5 66.7,78.6 66.7,78.6 C66.7,78.6 66.7,78.6 66.8,78.5 Z" id="Path"></path>
            <path d="M45,0 C69.9,0 90,20.1 90,45 C90,54 87.4,62.3 82.8,69.4 L80.6,63.1 C83.4,57.7 85,51.5 85,45 C85,22.9 67.1,5 45,5 C22.9,5 5,22.9 5,45 C5,67.1 22.9,85 45,85 C51.9,85 58.4,83.2 64.1,80.1 L70,82.3 L70,82.3 C62.9,87.2 54.3,90 45,90 C20.1,90 0,69.9 0,45 C0,20.1 20.1,0 45,0 Z" id="Path"></path>
            <path d="M81.7,81.5 L79.2,74.2 C80.5,72.7 81.6,71.1 82.7,69.5 C82.7,69.5 82.8,69.4 82.8,69.4 L90,90 L70.1,82.4 C71.7,81.3 73.3,80.1 74.7,78.8 L81.7,81.5 Z" id="Path"></path>
            <path d="M82.7,69.5 C81.6,71.1 80.5,72.7 79.2,74.2 L79.2,74.2 C80.5,72.7 81.7,71.2 82.7,69.5 Z" id="Path"></path>
            <path d="M71.2,81.6 C72.4,80.7 73.6,79.8 74.7,78.8 L74.7,78.8 C73.2,80.1 71.7,81.3 70.1,82.4 L70.1,82.4 C70.4,82.1 70.8,81.9 71.2,81.6 Z" id="Path"></path>
            <path d="M69.1,76.9 C68.3,77.5 67.5,78 66.7,78.6 C67.6,78 68.4,77.5 69.1,76.9 Z" id="Path"></path>
            <path d="M69.3,76.7 L69.3,76.7 C69.3,76.7 69.2,76.8 69.1,76.8 C69.2,76.8 69.2,76.8 69.3,76.7 Z" id="Path"></path>
            <path d="M66.6,78.6 C65.8,79.1 65,79.6 64.1,80.1 L64.1,80.1 C65,79.6 65.8,79.1 66.6,78.6 Z" id="Path"></path>
            <path d="M66.8,78.5 C67.6,78 68.4,77.4 69.2,76.8 L69.2,76.8 C69.2,76.8 69.2,76.8 69.2,76.8 C69.3,76.8 69.3,76.7 69.4,76.7 L74.8,78.8 C73.7,79.8 72.5,80.7 71.3,81.6 C70.9,81.9 70.5,82.1 70.1,82.4 L64.2,80.2 C65.1,79.7 65.9,79.2 66.7,78.7 C66.7,78.6 66.7,78.6 66.8,78.5 Z" id="Path"></path>
            <path d="M77.3,68.6 C78.6,66.9 79.7,65 80.7,63.1 L80.7,63.1 C79.7,65 78.5,66.9 77.3,68.6 L77.3,68.6 Z" id="Path"></path>
            <path d="M82.8,69.4 L82.8,69.4 C82.8,69.5 82.7,69.5 82.7,69.6 C82.8,69.5 82.8,69.4 82.8,69.4 Z" id="Path"></path>
            <path d="M79.2,74.2 L77.3,68.6 C78.6,66.9 79.7,65 80.7,63.1 L82.9,69.4 C82.9,69.5 82.8,69.5 82.8,69.6 C81.7,71.2 80.5,72.7 79.2,74.2 Z" id="Path"></path>
            <circle id="Oval" cx="49.5" cy="41.9" r="5"></circle>
            <circle id="Oval" cx="20.5" cy="41.9" r="5"></circle>
        </g>
    </g>
</svg>